<?xml version="1.0" encoding="UTF-8" standalone="no"?>
<!DOCTYPE svg PUBLIC "-//W3C//DTD SVG 1.1//EN" "http://www.w3.org/Graphics/SVG/1.1/DTD/svg11.dtd">
<svg width="100%" height="100%" viewBox="0 0 512 512" version="1.1" xmlns="http://www.w3.org/2000/svg" xmlns:xlink="http://www.w3.org/1999/xlink" xml:space="preserve" xmlns:serif="http://www.serif.com/" style="fill-rule:evenodd;clip-rule:evenodd;stroke-linejoin:round;stroke-miterlimit:1.41421;">
    <path d="M401.484,175.324L350.902,175.324L350.902,135.156C350.902,131.02 347.551,127.668 343.414,127.668C339.277,127.668 335.922,131.02 335.922,135.156L335.922,175.324L304.988,175.324L304.988,95.152C304.988,68.004 282.898,45.914 255.75,45.914C228.602,45.914 206.516,68.004 206.516,95.152L206.516,175.324L175.582,175.324L175.582,95.152C175.582,50.945 211.543,14.98 255.75,14.98C275.902,14.98 295.16,22.484 309.988,36.109C324.723,49.656 333.82,68.047 335.598,87.895C335.969,92.012 339.625,95.051 343.727,94.684C347.848,94.313 350.887,90.676 350.52,86.555C348.406,62.984 337.613,41.152 320.125,25.082C302.531,8.906 279.668,0 255.754,0C203.285,0 160.602,42.684 160.602,95.152L160.602,175.324L110.02,175.324C87.953,175.324 70,193.273 70,215.34L70,303.441C70,307.574 73.352,310.93 77.492,310.93C81.629,310.93 84.98,307.578 84.98,303.441L84.98,278.98L426.523,278.98L426.523,471.98C426.523,485.789 415.293,497.02 401.484,497.02L110.02,497.02C96.215,497.02 84.98,485.789 84.98,471.98L84.98,348.379C84.98,344.246 81.629,340.891 77.492,340.891C73.352,340.891 70,344.242 70,348.379L70,471.98C70,494.047 87.953,512 110.02,512L401.484,512C423.551,512 441.504,494.047 441.504,471.98L441.504,215.34C441.504,193.273 423.555,175.324 401.484,175.324ZM221.496,95.152C221.496,76.262 236.863,60.895 255.754,60.895C274.641,60.895 290.008,76.262 290.008,95.152L290.008,175.324L221.496,175.324L221.496,95.152ZM426.523,264L84.98,264L84.98,215.34C84.98,201.535 96.211,190.301 110.02,190.301L401.484,190.301C415.293,190.301 426.523,201.535 426.523,215.34L426.523,264Z" style="fill:white;fill-rule:nonzero;"/>
    <path d="M255.754,430.008C268.238,430.008 278.398,419.848 278.398,407.363L278.398,389.418C278.398,388.539 278.805,387.715 279.512,387.156C288.895,379.801 294.273,368.75 294.273,356.844C294.273,345.906 289.598,335.441 281.445,328.141C273.297,320.844 262.348,317.352 251.395,318.563C233.309,320.559 219.348,334.602 217.449,352.703C216.043,366.102 221.523,379.02 232.121,387.258C232.738,387.738 233.105,388.547 233.105,389.418L233.105,407.359C233.105,419.852 243.266,430.008 255.754,430.008ZM232.348,354.27C233.504,343.23 242.016,334.672 253.039,333.453C253.957,333.352 254.867,333.301 255.77,333.301C261.59,333.301 267.078,335.383 271.449,339.301C276.434,343.766 279.293,350.16 279.293,356.844C279.293,364.117 276.004,370.871 270.27,375.371C265.914,378.789 263.418,383.906 263.418,389.418L263.418,407.363C263.418,411.59 259.977,415.027 255.754,415.027C251.527,415.027 248.086,411.59 248.086,407.363L248.086,389.422C248.086,383.961 245.555,378.73 241.316,375.434C234.836,370.395 231.484,362.484 232.348,354.27Z" style="fill:white;fill-rule:nonzero;"/>
    <path d="M185.297,201.418C171.109,201.418 159.563,212.961 159.563,227.148C159.563,241.34 171.109,252.883 185.297,252.883C199.488,252.883 211.031,241.34 211.031,227.148C211.031,212.961 199.488,201.418 185.297,201.418ZM185.297,237.902C179.367,237.902 174.543,233.078 174.543,227.148C174.543,221.219 179.367,216.398 185.297,216.398C191.227,216.398 196.051,221.219 196.051,227.148C196.051,233.078 191.227,237.902 185.297,237.902Z" style="fill:white;fill-rule:nonzero;"/>
    <path d="M255.754,201.418C241.563,201.418 230.02,212.961 230.02,227.148C230.02,241.34 241.563,252.883 255.754,252.883C269.941,252.883 281.484,241.34 281.484,227.148C281.484,212.961 269.941,201.418 255.754,201.418ZM255.754,237.902C249.824,237.902 245,233.078 245,227.148C245,221.219 249.824,216.398 255.754,216.398C261.684,216.398 266.504,221.219 266.504,227.148C266.504,233.078 261.684,237.902 255.754,237.902Z" style="fill:white;fill-rule:nonzero;"/>
    <path d="M326.207,201.418C312.02,201.418 300.477,212.961 300.477,227.148C300.477,241.34 312.02,252.883 326.207,252.883C340.398,252.883 351.941,241.34 351.941,227.148C351.941,212.961 340.398,201.418 326.207,201.418ZM326.207,237.902C320.281,237.902 315.457,233.078 315.457,227.148C315.457,221.219 320.277,216.398 326.207,216.398C332.137,216.398 336.961,221.219 336.961,227.148C336.961,233.078 332.137,237.902 326.207,237.902Z" style="fill:white;fill-rule:nonzero;"/>
</svg>
