<svg height="511.999pt" viewBox="1 1 511.999 511.999" width="511.999pt" xmlns="http://www.w3.org/2000/svg"><path d="m54.769531 72.820312c-12.140625 0-22.015625-9.875-22.015625-22.011718 0-12.140625 9.875-22.015625 22.015625-22.015625 12.136719 0 22.011719 9.875 22.011719 22.015625 0 12.136718-9.875 22.011718-22.011719 22.011718zm0-29.023437c-3.867187 0-7.011719 3.144531-7.011719 7.011719 0 3.863281 3.144532 7.007812 7.011719 7.007812 3.863281 0 7.011719-3.144531 7.011719-7.007812 0-3.867188-3.148438-7.011719-7.011719-7.011719zm0 0"/><path d="m110.816406 72.820312c-12.140625 0-22.015625-9.875-22.015625-22.011718 0-12.140625 9.878907-22.015625 22.015625-22.015625 12.136719 0 22.011719 9.875 22.011719 22.015625 0 12.136718-9.875 22.011718-22.011719 22.011718zm0-29.023437c-3.867187 0-7.011718 3.144531-7.011718 7.011719 0 3.863281 3.144531 7.007812 7.011718 7.007812 3.863282 0 7.011719-3.144531 7.011719-7.007812 0-3.867188-3.148437-7.011719-7.011719-7.011719zm0 0"/><path d="m166.863281 72.820312c-12.140625 0-22.015625-9.875-22.015625-22.011718 0-12.140625 9.875-22.015625 22.015625-22.015625 12.136719 0 22.011719 9.875 22.011719 22.015625 0 12.136718-9.875 22.011718-22.011719 22.011718zm0-29.023437c-3.867187 0-7.011719 3.144531-7.011719 7.011719 0 3.863281 3.144532 7.007812 7.011719 7.007812 3.863281 0 7.011719-3.144531 7.011719-7.007812 0-3.867188-3.144531-7.011719-7.011719-7.011719zm0 0"/><path d="m333.953125 132.9375h-157.027344c-4.144531 0-7.503906 3.359375-7.503906 7.5 0 4.144531 3.359375 7.5 7.503906 7.5h157.027344c4.140625 0 7.5-3.355469 7.5-7.5 0-4.140625-3.359375-7.5-7.5-7.5zm0 0"/><path d="m189.675781 253.457031c0 4.144531 3.359375 7.5 7.503907 7.5h116.519531c4.144531 0 7.5-3.355469 7.5-7.5 0-4.140625-3.355469-7.5-7.5-7.5h-116.519531c-4.144532 0-7.503907 3.359375-7.503907 7.5zm0 0"/><path d="m63.71875 174.445312c0 4.140626 3.359375 7.5 7.5 7.5h134.488281c4.140625 0 7.5-3.359374 7.5-7.5 0-4.144531-3.359375-7.503906-7.5-7.503906h-134.488281c-4.144531 0-7.5 3.359375-7.5 7.503906zm0 0"/><path d="m297.871094 166.941406h-55.808594c-4.144531 0-7.503906 3.359375-7.503906 7.503906 0 4.140626 3.359375 7.5 7.503906 7.5h55.808594c4.144531 0 7.503906-3.359374 7.503906-7.5 0-4.144531-3.359375-7.503906-7.503906-7.503906zm0 0"/><path d="m327.082031 174.445312c0 4.140626 3.359375 7.5 7.5 7.5h105.078125c4.140625 0 7.5-3.359374 7.5-7.5 0-4.144531-3.359375-7.503906-7.5-7.503906h-105.078125c-4.140625 0-7.5 3.359375-7.5 7.503906zm0 0"/><path d="m478.984375 0h-445.972656c-18.203125 0-33.011719 14.808594-33.011719 33.015625v135.636719c0 4.140625 3.359375 7.5 7.5 7.5 4.144531 0 7.503906-3.359375 7.503906-7.5v-66.613282h481.992188v376.945313c0 9.933594-8.078125 18.011719-18.007813 18.011719h-445.976562c-9.929688 0-18.007813-8.078125-18.007813-18.011719v-264.324219c0-4.144531-3.359375-7.503906-7.503906-7.503906-4.140625 0-7.5 3.359375-7.5 7.503906v264.324219c0 18.203125 14.808594 33.015625 33.011719 33.015625h445.972656c18.203125 0 33.015625-14.8125 33.015625-33.015625v-445.96875c0-18.207031-14.808594-33.015625-33.015625-33.015625zm18.011719 87.035156h-481.992188v-54.019531c0-9.933594 8.078125-18.011719 18.007813-18.011719h445.972656c9.933594 0 18.011719 8.078125 18.011719 18.007813zm0 0"/><path d="m44.304688 370.863281v78.242188c0 9.3125 7.574218 16.890625 16.886718 16.890625h81.039063c9.3125 0 16.890625-7.578125 16.890625-16.890625v-78.242188c0-9.3125-7.578125-16.886719-16.890625-16.886719h-34.320313v-20.003906h140.027344v20.003906h-33.019531c-9.3125 0-16.890625 7.574219-16.890625 16.886719v78.242188c0 9.3125 7.578125 16.890625 16.890625 16.890625h81.039062c9.3125 0 16.890625-7.578125 16.890625-16.890625v-78.242188c0-9.3125-7.578125-16.886719-16.890625-16.886719h-33.019531v-20.003906h140.027344v20.003906h-34.320313c-9.3125 0-16.890625 7.574219-16.890625 16.886719v78.242188c0 9.3125 7.578125 16.890625 16.890625 16.890625h81.039063c9.3125 0 16.890625-7.578125 16.890625-16.890625v-78.242188c0-9.3125-7.578125-16.886719-16.890625-16.886719h-31.71875v-22.722656c0-6.773437-5.507813-12.285156-12.285156-12.285156h-142.738282v-25.355469h106.539063c9.3125 0 16.886719-7.574219 16.886719-16.890625v-47.882812c0-9.3125-7.574219-16.890625-16.886719-16.890625h-56.96875c-4.140625 0-7.5 3.359375-7.5 7.503906 0 4.140625 3.359375 7.5 7.5 7.5h56.96875c1.039062 0 1.886719.847656 1.886719 1.886719v47.882812c0 1.042969-.847657 1.886719-1.886719 1.886719h-228.082031c-1.039063 0-1.886719-.84375-1.886719-1.886719v-47.882812c0-1.039063.847656-1.886719 1.886719-1.886719h125.605468c4.144532 0 7.5-3.359375 7.5-7.5 0-4.144531-3.355468-7.503906-7.5-7.503906h-125.605468c-9.3125 0-16.890626 7.578125-16.890626 16.890625v47.882812c0 9.316406 7.578126 16.890625 16.890626 16.890625h106.539062v25.355469h-142.742188c-6.773437 0-12.285156 5.511719-12.285156 12.285156v22.722656h-31.71875c-9.3125 0-16.886718 7.574219-16.886718 16.886719zm405.378906-1.886719c1.042968 0 1.886718.847657 1.886718 1.886719v78.242188c0 1.039062-.84375 1.886719-1.886718 1.886719h-81.039063c-1.039062 0-1.886719-.847657-1.886719-1.886719v-78.242188c0-1.039062.847657-1.886719 1.886719-1.886719zm-153.726563 0c1.042969 0 1.886719.847657 1.886719 1.886719v78.242188c0 1.039062-.84375 1.886719-1.886719 1.886719h-81.039062c-1.039063 0-1.886719-.847657-1.886719-1.886719v-78.242188c0-1.039062.847656-1.886719 1.886719-1.886719zm-153.726562 0c1.042969 0 1.890625.847657 1.890625 1.886719v78.242188c0 1.039062-.847656 1.886719-1.890625 1.886719h-81.039063c-1.039062 0-1.886718-.847657-1.886718-1.886719v-78.242188c0-1.039062.847656-1.886719 1.886718-1.886719zm0 0"/><path d="m280.441406 403.984375h-50.007812c-4.140625 0-7.5-3.359375-7.5-7.5 0-4.144531 3.359375-7.503906 7.5-7.503906h50.007812c4.144532 0 7.503906 3.359375 7.503906 7.503906 0 4.140625-3.359374 7.5-7.503906 7.5zm0 0"/><path d="m262.441406 430.988281h-32.007812c-4.140625 0-7.5-3.359375-7.5-7.5 0-4.144531 3.359375-7.503906 7.5-7.503906h32.007812c4.140625 0 7.5 3.359375 7.5 7.503906 0 4.140625-3.359375 7.5-7.5 7.5zm0 0"/><path d="m126.714844 403.984375h-50.007813c-4.140625 0-7.5-3.359375-7.5-7.5 0-4.144531 3.359375-7.503906 7.5-7.503906h50.007813c4.144531 0 7.503906 3.359375 7.503906 7.503906 0 4.140625-3.359375 7.5-7.503906 7.5zm0 0"/><path d="m108.714844 430.988281h-32.007813c-4.140625 0-7.5-3.359375-7.5-7.5 0-4.144531 3.359375-7.503906 7.5-7.503906h32.007813c4.140625 0 7.5 3.359375 7.5 7.503906 0 4.140625-3.359375 7.5-7.5 7.5zm0 0"/><path d="m434.167969 403.984375h-50.007813c-4.140625 0-7.5-3.359375-7.5-7.5 0-4.144531 3.359375-7.503906 7.5-7.503906h50.007813c4.144531 0 7.503906 3.359375 7.503906 7.503906 0 4.140625-3.359375 7.5-7.503906 7.5zm0 0"/><path d="m416.167969 430.988281h-32.007813c-4.140625 0-7.5-3.359375-7.5-7.5 0-4.144531 3.359375-7.503906 7.5-7.503906h32.007813c4.140625 0 7.5 3.359375 7.5 7.503906 0 4.140625-3.359375 7.5-7.5 7.5zm0 0"/></svg>