<?xml version="1.0" encoding="UTF-8" standalone="no"?>
<!DOCTYPE svg PUBLIC "-//W3C//DTD SVG 1.1//EN" "http://www.w3.org/Graphics/SVG/1.1/DTD/svg11.dtd">
<svg width="100%" height="100%" viewBox="0 0 511 511" version="1.1" xmlns="http://www.w3.org/2000/svg" xmlns:xlink="http://www.w3.org/1999/xlink" xml:space="preserve" xmlns:serif="http://www.serif.com/" style="fill-rule:evenodd;clip-rule:evenodd;stroke-linejoin:round;stroke-miterlimit:1.41421;">
    <path d="M459.98,194.182C459.699,193.882 459.399,193.613 459.083,193.368C455.481,190.268 450.81,188.381 445.699,188.381L397.204,188.381C393.048,188.381 389.683,191.746 389.683,195.902C389.683,200.054 393.048,203.418 397.204,203.418L437.461,203.418L337.571,284.135L237.676,203.418L351.083,203.418C355.235,203.418 358.604,200.054 358.604,195.902C358.604,191.746 355.235,188.381 351.083,188.381L229.438,188.381C224.327,188.381 219.66,190.268 216.058,193.364C215.738,193.609 215.438,193.882 215.154,194.186C211.298,197.925 208.885,203.149 208.885,208.935L208.885,350.521C208.885,361.855 218.105,371.075 229.438,371.075L445.703,371.075C457.036,371.075 466.256,361.855 466.256,350.521L466.256,208.935C466.253,203.145 463.843,197.921 459.98,194.182ZM451.216,350.521C451.216,350.981 451.153,351.43 451.044,351.858L378.728,270.213L451.216,211.64L451.216,350.521ZM337.571,299.87C340.366,299.87 343.165,298.95 345.446,297.106L367.021,279.671L434.658,356.038L240.483,356.038L308.12,279.671L329.691,297.106C331.976,298.95 334.771,299.87 337.571,299.87ZM223.922,350.521L223.922,211.64L296.409,270.213L224.093,351.858C223.988,351.43 223.922,350.981 223.922,350.521Z" style="fill:white;fill-rule:nonzero;"/>
    <path d="M99.497,46.994C87.329,46.994 77.427,56.892 77.427,69.06C77.427,81.227 87.325,91.126 99.497,91.126C111.665,91.126 121.563,81.227 121.563,69.06C121.563,56.892 111.665,46.994 99.497,46.994ZM99.497,76.089C95.622,76.089 92.468,72.935 92.468,69.06C92.468,65.185 95.622,62.031 99.497,62.031C103.372,62.031 106.522,65.185 106.522,69.06C106.522,72.935 103.372,76.089 99.497,76.089Z" style="fill:white;fill-rule:nonzero;"/>
    <path d="M155.676,46.994C143.509,46.994 133.61,56.892 133.61,69.06C133.61,81.227 143.509,91.126 155.676,91.126C167.844,91.126 177.742,81.227 177.742,69.06C177.746,56.892 167.844,46.994 155.676,46.994ZM155.676,76.089C151.801,76.089 148.651,72.935 148.651,69.06C148.651,65.185 151.801,62.031 155.676,62.031C159.551,62.031 162.705,65.185 162.705,69.06C162.705,72.935 159.551,76.089 155.676,76.089Z" style="fill:white;fill-rule:nonzero;"/>
    <path d="M211.859,46.994C199.692,46.994 189.793,56.892 189.793,69.06C189.793,81.227 199.692,91.126 211.859,91.126C224.027,91.126 233.925,81.227 233.925,69.06C233.925,56.892 224.027,46.994 211.859,46.994ZM211.859,76.089C207.984,76.089 204.83,72.935 204.83,69.06C204.83,65.185 207.984,62.031 211.859,62.031C215.734,62.031 218.888,65.185 218.888,69.06C218.888,72.935 215.734,76.089 211.859,76.089Z" style="fill:white;fill-rule:nonzero;"/>
    <path d="M485.461,22.58C483.465,22.171 481.399,21.957 479.278,21.957L73.629,21.957C71.513,21.957 69.446,22.171 67.446,22.58C53.462,25.45 42.908,37.855 42.908,52.682L42.908,249.102L6.53,249.102C2.378,249.102 -0.99,252.471 -0.99,256.623C-0.99,260.775 2.378,264.143 6.53,264.143L42.908,264.143L42.908,386.841C42.908,390.997 46.273,394.361 50.425,394.361C54.581,394.361 57.945,390.997 57.945,386.841L57.945,264.139L103.364,264.139C107.516,264.139 110.885,260.775 110.885,256.623C110.885,252.467 107.516,249.102 103.364,249.102L57.945,249.102L57.945,116.163L494.962,116.163L494.962,458.326C494.962,466.977 487.929,474.014 479.278,474.014L73.629,474.014C64.982,474.014 57.945,466.977 57.945,458.326L57.945,433.574C57.945,429.422 54.581,426.053 50.425,426.053C46.273,426.053 42.908,429.422 42.908,433.574L42.908,458.326C42.908,475.27 56.69,489.051 73.629,489.051L479.278,489.051C496.217,489.051 510.003,475.27 510.003,458.326L510.003,52.682C510.003,37.855 499.449,25.45 485.461,22.58ZM494.966,101.122L57.945,101.122L57.945,52.682C57.945,44.573 64.132,37.882 72.031,37.075C72.557,37.021 73.091,36.997 73.633,36.997L479.278,36.997C479.82,36.997 480.354,37.025 480.88,37.075C488.779,37.882 494.966,44.573 494.966,52.682L494.966,101.122Z" style="fill:white;fill-rule:nonzero;"/>
    <path d="M183.165,206.985C183.165,202.833 179.801,199.469 175.649,199.469L106.62,199.469C102.468,199.469 99.103,202.833 99.103,206.985C99.103,211.141 102.468,214.506 106.62,214.506L175.649,214.506C179.801,214.506 183.165,211.141 183.165,206.985Z" style="fill:white;fill-rule:nonzero;"/>
    <path d="M69.36,199.469C65.208,199.469 61.84,202.833 61.84,206.985C61.84,211.141 65.208,214.506 69.36,214.506L84.066,214.506C88.218,214.506 91.583,211.141 91.583,206.985C91.583,202.833 88.218,199.469 84.066,199.469L69.36,199.469Z" style="fill:white;fill-rule:nonzero;"/>
    <path d="M175.976,344.946L152.331,344.946C148.179,344.946 144.815,348.315 144.815,352.467C144.815,356.619 148.179,359.987 152.331,359.987L175.976,359.987C180.128,359.987 183.497,356.619 183.497,352.467C183.497,348.315 180.128,344.946 175.976,344.946Z" style="fill:white;fill-rule:nonzero;"/>
    <path d="M34.511,296.432L6.522,296.432C2.366,296.432 -0.998,299.796 -0.998,303.952C-0.998,308.104 2.366,311.469 6.522,311.469L34.511,311.469C38.663,311.469 42.027,308.104 42.027,303.952C42.027,299.796 38.663,296.432 34.511,296.432Z" style="fill:white;fill-rule:nonzero;"/>
    <path d="M26.417,344.946L6.522,344.946C2.366,344.946 -0.998,348.315 -0.998,352.467C-0.998,356.619 2.366,359.987 6.522,359.987L26.417,359.987C30.569,359.987 33.934,356.619 33.934,352.467C33.934,348.315 30.569,344.946 26.417,344.946Z" style="fill:white;fill-rule:nonzero;"/>
    <path d="M71.294,303.952C71.294,308.104 74.659,311.469 78.815,311.469L175.649,311.469C179.801,311.469 183.165,308.104 183.165,303.952C183.165,299.796 179.801,296.432 175.649,296.432L78.815,296.432C74.659,296.432 71.294,299.796 71.294,303.952Z" style="fill:white;fill-rule:nonzero;"/>
    <path d="M61.84,352.467C61.84,356.619 65.208,359.987 69.36,359.987L123.774,359.987C127.926,359.987 131.29,356.619 131.29,352.467C131.29,348.315 127.926,344.946 123.774,344.946L69.36,344.946C65.208,344.946 61.84,348.315 61.84,352.467Z" style="fill:white;fill-rule:nonzero;"/>
    <path d="M6.53,214.506L28.292,214.506C32.444,214.506 35.813,211.141 35.813,206.985C35.813,202.833 32.444,199.469 28.292,199.469L6.53,199.469C2.378,199.469 -0.99,202.833 -0.99,206.985C-0.99,211.141 2.378,214.506 6.53,214.506Z" style="fill:white;fill-rule:nonzero;"/>
    <path d="M129.017,264.139L175.649,264.139C179.801,264.139 183.165,260.775 183.165,256.623C183.165,252.467 179.801,249.102 175.649,249.102L129.017,249.102C124.861,249.102 121.497,252.467 121.497,256.623C121.497,260.775 124.865,264.139 129.017,264.139Z" style="fill:white;fill-rule:nonzero;"/>
</svg>
