<svg height="512pt" viewBox="-1 0 512 512.002" width="512pt" xmlns="http://www.w3.org/2000/svg"><path d="m122.171875 36.128906c-.738281-1.792968-2.148437-3.292968-4.015625-4.078125-.449219-.191406-.921875-.332031-1.402344-.429687-1.886718-.371094-4.019531.058594-5.628906 1.117187-.410156.273438-.789062.589844-1.140625.933594-2.261719 2.195313-2.804687 5.320313-1.617187 8.179687.796874 1.929688 2.097656 3.242188 4.058593 4.050782.449219.191406.921875.328125 1.402344.429687.476563.101563.976563.148438 1.457031.148438.492188 0 .980469-.046875 1.472656-.148438 1.933594-.394531 3.6875-1.554687 4.769532-3.191406.679687-1.027344 1.078125-2.230469 1.1875-3.457031.109375-1.230469-.089844-2.449219-.542969-3.554688zm0 0"/><path d="m147.246094 36.113281c-.765625-1.808593-2.21875-3.289062-4.058594-4.0625-.449219-.191406-.917969-.332031-1.398438-.429687-2.4375-.492188-5.03125.308594-6.769531 2.050781-.339843.347656-.660156.726563-.933593 1.136719-1.910157 2.902344-1.53125 7.011718.933593 9.472656 1.398438 1.402344 3.328125 2.199219 5.300781 2.199219.488282 0 .988282-.046875 1.46875-.148438 3.539063-.738281 6.09375-3.796875 6.011719-7.457031-.019531-.9375-.191406-1.890625-.554687-2.761719zm0 0"/><path d="m172.222656 36.136719c-.351562-.914063-.871094-1.757813-1.558594-2.464844-1.671874-1.722656-4.441406-2.476563-6.769531-2.042969-.480469.089844-.949219.242188-1.402343.421875-1.296876.519531-2.597657 1.589844-3.367188 2.761719-.785156 1.191406-1.261719 2.707031-1.261719 4.167969 0 2.054687.742188 3.851562 2.191407 5.300781.855468.859375 1.910156 1.507812 3.070312 1.867188 1.53125.476562 3.625.375 5.101562-.246094.867188-.367188 1.769532-.953125 2.441407-1.621094 2.113281-2.109375 2.59375-5.429688 1.554687-8.144531zm0 0"/><path d="m128.574219 223.785156h252.953125c10.339844 0 18.75-8.414062 18.75-18.753906v-95.257812c0-10.339844-8.410156-18.753907-18.75-18.753907h-177.097656c-4.140626 0-7.5 3.359375-7.5 7.5 0 4.144531 3.359374 7.503907 7.5 7.503907h177.097656c2.066406 0 3.746094 1.679687 3.746094 3.75v95.257812c0 2.070312-1.679688 3.75-3.746094 3.75h-11.371094l-53.59375-60.394531c-2.277344-2.566407-5.550781-4.097657-8.980469-4.199219-3.429687-.117188-6.785156 1.226562-9.210937 3.652344l-26.570313 26.558594-36.914062-41.597657c-2.277344-2.566406-5.550781-4.09375-8.976563-4.199219-3.394531-.113281-6.789062 1.230469-9.214844 3.65625l-76.558593 76.523438h-11.5625c-2.066407 0-3.746094-1.683594-3.746094-3.75v-95.261719c0-2.066406 1.679687-3.75 3.746094-3.75h28.183593c4.140626 0 7.5-3.355469 7.5-7.5s-3.359374-7.5-7.5-7.5h-28.183593c-10.339844 0-18.75 8.410157-18.75 18.75v95.261719c0 10.339844 8.410156 18.753906 18.75 18.753906zm96.851562-79.042968 51.035157 57.515624c2.75 3.101563 7.492187 3.382813 10.589843.632813 3.101563-2.75 3.382813-7.488281.632813-10.589844l-5.910156-6.660156 25.328124-25.3125 42.996094 48.453125h-188.738281zm0 0"/><path d="m491.929688 91.910156c10.496093 0 19.035156-8.542968 19.035156-19.039062v-22.042969c0-10.496094-8.539063-19.035156-19.035156-19.035156h-56.601563v-6.59375c0-13.894531-11.304687-25.199219-25.199219-25.199219h-309.375c-13.894531 0-25.199218 11.304688-25.199218 25.199219v6.59375h-56.519532c-10.496094 0-19.035156 8.539062-19.035156 19.035156v22.042969c0 10.496094 8.539062 19.039062 19.035156 19.039062h5.375v295.160156h-5.375c-10.496094 0-19.035156 8.539063-19.035156 19.035157v22.042969c0 10.496093 8.539062 19.035156 19.035156 19.035156h42.871094c4.140625 0 7.5-3.355469 7.5-7.5 0-4.140625-3.359375-7.5-7.5-7.5h-42.871094c-2.222656 0-4.03125-1.808594-4.03125-4.035156v-22.042969c0-2.222657 1.808594-4.03125 4.03125-4.03125h472.894532c2.222656 0 4.03125 1.808593 4.03125 4.03125v22.042969c0 2.226562-1.808594 4.035156-4.03125 4.035156h-383.515626c-4.144531 0-7.5 3.359375-7.5 7.5 0 4.144531 3.355469 7.5 7.5 7.5h139.523438v11.414062c-11.375 3.265625-19.730469 13.757813-19.730469 26.171875 0 15.015625 12.214844 27.234375 27.234375 27.234375 15.015625 0 27.230469-12.21875 27.230469-27.234375 0-12.414062-8.351563-22.90625-19.730469-26.171875v-11.414062h228.988282c10.496093 0 19.035156-8.539063 19.035156-19.035156v-22.042969c0-10.496094-8.539063-19.035157-19.035156-19.035157h-5.460938v-295.160156zm-224.261719 392.859375c0 6.742188-5.484375 12.226563-12.230469 12.226563-6.742188 0-12.226562-5.484375-12.226562-12.226563 0-6.746093 5.484374-12.230469 12.226562-12.230469 6.746094 0 12.230469 5.484376 12.230469 12.230469zm-177.113281-459.570312c0-5.621094 4.574218-10.195313 10.195312-10.195313h309.375c5.625 0 10.199219 4.574219 10.199219 10.195313v35.175781h-329.769531zm0 50.179687h329.769531v259.195313c0 5.621093-4.574219 10.195312-10.195313 10.195312h-309.375c-5.621094 0-10.195312-4.574219-10.195312-10.195312v-259.195313zm-71.519532 1.527344c-2.222656 0-4.03125-1.808594-4.03125-4.035156v-22.042969c0-2.222656 1.808594-4.03125 4.03125-4.03125h56.519532v30.109375zm452.433594 310.050781h-432.058594v-294.847656h36.144532v242.464844c0 13.894531 11.304687 25.199219 25.195312 25.199219h309.375c13.898438 0 25.199219-11.304688 25.199219-25.199219v-242.464844h36.140625v294.847656zm-36.140625-310.050781v-30.109375h56.601563c2.222656 0 4.03125 1.808594 4.03125 4.03125v22.042969c0 2.226562-1.808594 4.035156-4.03125 4.035156zm0 0"/><path d="m116.042969 269.855469h101.765625c4.144531 0 7.5-3.355469 7.5-7.5 0-4.140625-3.355469-7.5-7.5-7.5h-101.765625c-4.144531 0-7.503907 3.359375-7.503907 7.5 0 4.144531 3.359376 7.5 7.503907 7.5zm0 0"/><path d="m287.550781 269.855469c4.144531 0 7.5-3.355469 7.5-7.5 0-4.140625-3.355469-7.5-7.5-7.5h-42.234375c-4.144531 0-7.5 3.359375-7.5 7.5 0 4.144531 3.355469 7.5 7.5 7.5zm0 0"/><path d="m394.839844 254.855469h-79.511719c-4.140625 0-7.5 3.359375-7.5 7.5 0 4.144531 3.359375 7.5 7.5 7.5h79.511719c4.144531 0 7.5-3.355469 7.5-7.5 0-4.140625-3.359375-7.5-7.5-7.5zm0 0"/><path d="m116.042969 331.878906h101.765625c4.144531 0 7.5-3.359375 7.5-7.5 0-4.144531-3.355469-7.5-7.5-7.5h-101.765625c-4.144531 0-7.503907 3.355469-7.503907 7.5 0 4.140625 3.359376 7.5 7.503907 7.5zm0 0"/><path d="m287.550781 316.878906h-42.234375c-4.144531 0-7.5 3.355469-7.5 7.5 0 4.140625 3.355469 7.5 7.5 7.5h42.234375c4.144531 0 7.5-3.359375 7.5-7.5 0-4.144531-3.355469-7.5-7.5-7.5zm0 0"/><path d="m394.839844 316.878906h-79.511719c-4.140625 0-7.5 3.355469-7.5 7.5 0 4.140625 3.359375 7.5 7.5 7.5h79.511719c4.144531 0 7.5-3.359375 7.5-7.5 0-4.144531-3.359375-7.5-7.5-7.5zm0 0"/><path d="m116.042969 300.589844h51.101562c4.144531 0 7.503907-3.355469 7.503907-7.5 0-4.140625-3.359376-7.5-7.503907-7.5h-51.101562c-4.144531 0-7.503907 3.359375-7.503907 7.5 0 4.144531 3.359376 7.5 7.503907 7.5zm0 0"/><path d="m195.363281 293.089844c0 4.144531 3.359375 7.5 7.503907 7.5h112.460937c4.144531 0 7.503906-3.355469 7.503906-7.5 0-4.140625-3.359375-7.5-7.503906-7.5h-112.460937c-4.144532 0-7.503907 3.359375-7.503907 7.5zm0 0"/><path d="m394.839844 285.589844h-56.382813c-4.144531 0-7.503906 3.359375-7.503906 7.5 0 4.144531 3.359375 7.5 7.503906 7.5h56.382813c4.144531 0 7.5-3.355469 7.5-7.5 0-4.140625-3.359375-7.5-7.5-7.5zm0 0"/></svg>