<svg height="512pt" viewBox="0 0 512 512" width="512pt" xmlns="http://www.w3.org/2000/svg"><path d="m55.261719 28.761719c-12.125 0-21.988281 9.867187-21.988281 21.992187s9.863281 21.988282 21.988281 21.988282 21.992187-9.863282 21.992187-21.988282-9.867187-21.992187-21.992187-21.992187zm0 28.996093c-3.859375 0-7.003907-3.144531-7.003907-7.003906 0-3.863281 3.144532-7.003906 7.003907-7.003906 3.863281 0 7.003906 3.140625 7.003906 7.003906 0 3.859375-3.140625 7.003906-7.003906 7.003906zm0 0"/><path d="m111.25 28.761719c-12.125 0-21.992188 9.867187-21.992188 21.992187s9.867188 21.988282 21.992188 21.988282 21.988281-9.863282 21.988281-21.988282-9.863281-21.992187-21.988281-21.992187zm0 28.996093c-3.863281 0-7.003906-3.144531-7.003906-7.003906 0-3.863281 3.140625-7.003906 7.003906-7.003906 3.859375 0 7.003906 3.140625 7.003906 7.003906 0 3.859375-3.144531 7.003906-7.003906 7.003906zm0 0"/><path d="m167.234375 28.761719c-12.125 0-21.988281 9.867187-21.988281 21.992187s9.863281 21.988282 21.988281 21.988282 21.992187-9.863282 21.992187-21.988282-9.867187-21.992187-21.992187-21.992187zm0 28.996093c-3.859375 0-7.003906-3.144531-7.003906-7.003906 0-3.863281 3.144531-7.003906 7.003906-7.003906 3.863281 0 7.003906 3.140625 7.003906 7.003906 0 3.859375-3.140625 7.003906-7.003906 7.003906zm0 0"/><path d="m479.023438 0h-446.042969c-18.183594 0-32.980469 14.792969-32.980469 32.980469v362.566406c0 18.183594 14.796875 32.980469 32.980469 32.980469h145.804687v26.871094h-22.625c-15.089844 0-27.371094 12.28125-27.371094 27.371093v16.1875c0 6.886719 5.601563 12.492188 12.488282 12.492188h228.875c6.886718 0 12.488281-5.605469 12.488281-12.492188v-16.1875c0-15.089843-12.277344-27.371093-27.371094-27.371093h-22.625v-26.871094h145.808594c18.183594 0 32.980469-14.796875 32.980469-32.980469v-171.003906c0-4.140625-3.355469-7.492188-7.496094-7.492188-4.136719 0-7.492188 3.351563-7.492188 7.492188v127.59375h-481.457031v-250.207031h481.457031v75.324218c0 4.136719 3.355469 7.492188 7.492188 7.492188 4.140625 0 7.496094-3.355469 7.496094-7.492188l.566406-144.277344c0-18.183593-14.792969-32.976562-32.976562-32.976562zm-111.367188 482.769531v13.691407h-223.882812v-13.691407c0-6.828125 5.558593-12.382812 12.386718-12.382812h199.113282c6.828124 0 12.382812 5.554687 12.382812 12.382812zm-49.996094-27.371093h-123.890625v-26.871094h123.890625zm178.785156-88.273438v28.421875c0 9.921875-8.070312 17.992187-17.992187 17.992187h-445.472656c-9.921875 0-17.992188-8.070312-17.992188-17.992187v-28.421875zm0-280.183594h-480.90625v-53.964844c0-9.917968 8.070313-17.988281 17.992188-17.988281h444.921875c9.921875 0 17.992187 8.070313 17.992187 17.992188zm0 0"/><path d="m255.714844 117.808594c-16.417969 0-29.777344 13.355468-29.777344 29.777344 0 8.003906 3.183594 15.277343 8.339844 20.636718-4.792969 4.25-7.824219 10.453125-7.824219 17.351563v20.761719c0 6.886718 5.601563 12.488281 12.492187 12.488281h33.539063c6.886719 0 12.492187-5.601563 12.492187-12.488281v-20.761719c0-6.898438-3.03125-13.097657-7.824218-17.351563 5.15625-5.359375 8.339844-12.632812 8.339844-20.636718.003906-16.421876-13.355469-29.777344-29.777344-29.777344zm14.273437 86.027344h-28.546875v-18.261719c0-4.527344 3.683594-8.210938 8.210938-8.210938h12.128906c4.527344 0 8.210938 3.683594 8.210938 8.210938v18.261719zm-14.273437-41.460938c-8.15625 0-14.792969-6.632812-14.792969-14.789062s6.636719-14.792969 14.792969-14.792969 14.792968 6.636719 14.792968 14.792969-6.636718 14.789062-14.792968 14.789062zm0 0"/><path d="m112.023438 245.191406v66.941406c0 7.988282 6.496093 14.484376 14.484374 14.484376h258.414063c7.988281 0 14.488281-6.496094 14.488281-14.484376v-66.941406c0-7.988281-6.5-14.488281-14.488281-14.488281h-50.101563c-4.140624 0-7.492187 3.355469-7.492187 7.496094 0 4.136719 3.351563 7.492187 7.492187 7.492187h49.601563v65.941406h-257.414063v-65.941406h161.429688c4.136719 0 7.492188-3.355468 7.492188-7.492187 0-4.140625-3.355469-7.496094-7.492188-7.496094h-161.929688c-7.988281 0-14.484374 6.5-14.484374 14.488281zm0 0"/><path d="m136.613281 278.660156c0 10.53125 8.566407 19.09375 19.09375 19.09375 10.527344 0 19.09375-8.5625 19.09375-19.09375 0-10.527344-8.566406-19.09375-19.09375-19.09375-10.527343 0-19.09375 8.566406-19.09375 19.09375zm23.203125 0c0 2.265625-1.84375 4.109375-4.109375 4.109375-2.261719 0-4.105469-1.84375-4.105469-4.109375 0-2.261718 1.84375-4.105468 4.105469-4.105468 2.265625 0 4.109375 1.84375 4.109375 4.105468zm0 0"/><path d="m186.617188 278.660156c0 10.53125 8.566406 19.09375 19.09375 19.09375 10.527343 0 19.09375-8.5625 19.09375-19.09375 0-10.527344-8.566407-19.09375-19.09375-19.09375-10.527344 0-19.09375 8.566406-19.09375 19.09375zm23.203124 0c0 2.265625-1.84375 4.109375-4.109374 4.109375-2.261719 0-4.105469-1.84375-4.105469-4.109375 0-2.261718 1.84375-4.105468 4.105469-4.105468 2.265624 0 4.109374 1.84375 4.109374 4.105468zm0 0"/><path d="m236.621094 278.660156c0 10.53125 8.566406 19.09375 19.09375 19.09375s19.09375-8.5625 19.09375-19.09375c0-10.527344-8.566406-19.09375-19.09375-19.09375s-19.09375 8.566406-19.09375 19.09375zm23.203125 0c0 2.265625-1.84375 4.109375-4.109375 4.109375-2.261719 0-4.105469-1.84375-4.105469-4.109375 0-2.261718 1.84375-4.105468 4.105469-4.105468 2.265625 0 4.109375 1.84375 4.109375 4.105468zm0 0"/><path d="m286.625 278.660156c0 10.53125 8.566406 19.09375 19.09375 19.09375s19.09375-8.5625 19.09375-19.09375c0-10.527344-8.566406-19.09375-19.09375-19.09375s-19.09375 8.566406-19.09375 19.09375zm19.09375-4.105468c2.265625 0 4.109375 1.84375 4.109375 4.105468 0 2.265625-1.84375 4.109375-4.109375 4.109375-2.261719 0-4.105469-1.84375-4.105469-4.109375 0-2.261718 1.84375-4.105468 4.105469-4.105468zm0 0"/><path d="m374.816406 278.660156c0-10.527344-8.566406-19.09375-19.09375-19.09375s-19.089844 8.566406-19.089844 19.09375c0 10.53125 8.5625 19.09375 19.089844 19.09375s19.09375-8.5625 19.09375-19.09375zm-23.199218 0c0-2.261718 1.84375-4.105468 4.105468-4.105468 2.265625 0 4.109375 1.84375 4.109375 4.105468 0 2.265625-1.84375 4.109375-4.109375 4.109375-2.261718 0-4.105468-1.84375-4.105468-4.109375zm0 0"/></svg>