<svg height="512pt" viewBox="0 -95 512.001 512" width="512pt" xmlns="http://www.w3.org/2000/svg"><path d="m432.421875 94.699219h-84.707031v-15.117188c0-43.882812-35.699219-79.582031-79.582032-79.582031h-188.554687c-43.878906 0-79.578125 35.699219-79.578125 79.582031v67.601563c0 43.878906 35.699219 79.582031 79.578125 79.582031h84.710937v15.117187c0 43.882813 35.699219 79.582032 79.578126 79.582032h188.554687c43.878906 0 79.578125-35.699219 79.578125-79.582032v-67.601562c0-43.882812-35.699219-79.582031-79.578125-79.582031zm-352.84375 117.09375c-35.625 0-64.605469-28.980469-64.605469-64.609375v-67.601563c0-35.625 28.980469-64.609375 64.605469-64.609375h188.554687c35.625 0 64.609376 28.980469 64.609376 64.609375v67.601563c0 35.625-28.984376 64.609375-64.609376 64.609375zm417.449219 30.089843c0 35.625-28.980469 64.609376-64.605469 64.609376h-188.554687c-35.625 0-64.609376-28.980469-64.609376-64.609376v-15.117187h31.605469v5.050781c0 25.519532 20.761719 46.28125 46.28125 46.28125h90.679688c4.132812 0 7.484375-3.351562 7.484375-7.484375 0-4.136719-3.351563-7.488281-7.484375-7.488281h-90.679688c-17.265625 0-31.308593-14.042969-31.308593-31.308594v-5.050781h42.296874c41.910157 0 76.332032-32.574219 79.34375-73.726563h71.664063c17.265625 0 31.3125 14.042969 31.3125 31.308594v47.46875c0 17.265625-14.046875 31.308594-31.3125 31.308594h-24.40625c-4.136719 0-7.488281 3.351562-7.488281 7.488281 0 4.132813 3.351562 7.484375 7.488281 7.484375h24.40625c25.519531 0 46.28125-20.761718 46.28125-46.28125v-47.46875c0-25.519531-20.761719-46.28125-46.28125-46.28125h-71.425781v-28.394531h84.707031c35.621094 0 64.605469 28.984375 64.605469 64.609375zm0 0"/><path d="m301.132812 137.117188v-47.46875c0-25.519532-20.761718-46.28125-46.28125-46.28125h-161.992187c-23.21875 0-42.953125 17.34375-45.90625 40.34375-.523437 4.101562 2.375 7.851562 6.472656 8.378906 4.105469.519531 7.851563-2.375 8.378907-6.472656 1.992187-15.554688 15.34375-27.28125 31.054687-27.28125h161.992187c17.265626 0 31.3125 14.046874 31.3125 31.3125v5.050781h-42.296874c-41.910157 0-76.332032 32.574219-79.34375 73.726562h-71.664063c-17.265625 0-31.3125-14.042969-31.3125-31.308593v-5.042969c0-4.132813-3.351563-7.484375-7.484375-7.484375-4.136719 0-7.484375 3.351562-7.484375 7.484375v5.042969c0 25.519531 20.761719 46.28125 46.28125 46.28125h161.992187c25.519532 0 46.28125-20.761719 46.28125-46.28125zm-46.28125 31.308593h-24.644531c5.457031-9.203125 15.484375-15.386719 26.9375-15.386719h24.65625c-5.460937 9.203126-15.492187 15.386719-26.949219 15.386719zm31.3125-31.308593c0 .316406-.015624.632812-.023437.949218h-28.996094c-19.921875 0-36.933593 12.664063-43.4375 30.359375h-34.171875c2.96875-32.890625 30.679688-58.753906 64.332032-58.753906h42.296874zm0 0"/></svg>