<svg height="512pt" viewBox="0 0 512 512.001" width="512pt" xmlns="http://www.w3.org/2000/svg"><path d="m478.96875 0h-445.953125c-18.203125 0-33.015625 14.8125-33.015625 33.015625v362.957031c0 18.203125 14.8125 33.015625 33.015625 33.015625h145.964844v26.902344h-22.652344c-15.105469 0-27.398437 12.292969-27.398437 27.402344v16.207031c0 6.894531 5.605468 12.5 12.5 12.5h229.125c6.894531 0 12.5-5.605469 12.5-12.5v-16.207031c0-15.109375-12.289063-27.402344-27.398438-27.402344h-22.652344v-26.902344h42.550782c4.140624 0 7.5-3.355469 7.5-7.5s-3.359376-7.5-7.5-7.5h-342.539063c-9.933594 0-18.011719-8.082031-18.011719-18.015625v-28.453125h481.980469v28.453125c0 9.933594-8.082031 18.015625-18.015625 18.015625h-55.945312c-4.144532 0-7.5 3.355469-7.5 7.5s3.355468 7.5 7.5 7.5h55.945312c18.207031 0 33.015625-14.8125 33.015625-33.015625v-362.957031c0-18.203125-14.808594-33.015625-33.015625-33.015625zm-284.988281 428.988281h124.023437v26.902344h-124.023437zm131.523437 41.90625h30.152344c6.835938 0 12.398438 5.5625 12.398438 12.398438v13.707031h-224.125v-13.707031c0-6.835938 5.5625-12.398438 12.398437-12.398438zm171.476563-118.375h-481.976563v-319.503906c0-9.933594 8.078125-18.011719 18.011719-18.011719h445.953125c9.933594 0 18.015625 8.078125 18.015625 18.011719v319.503906zm0 0"/><path d="m389.269531 93.789062h-10c-4.144531 0-7.503906 3.359376-7.503906 7.5 0 4.144532 3.359375 7.503907 7.503906 7.503907h10c4.144531 0 7.503907-3.359375 7.503907-7.503907 0-4.140624-3.359376-7.5-7.503907-7.5zm0 0"/><path d="m469.285156 93.789062h-10.003906c-4.140625 0-7.5 3.359376-7.5 7.5 0 4.144532 3.359375 7.503907 7.5 7.503907h10.003906c4.144532 0 7.5-3.359375 7.5-7.503907 0-4.140624-3.355468-7.5-7.5-7.5zm0 0"/><path d="m429.277344 93.789062h-10c-4.144532 0-7.503906 3.359376-7.503906 7.5 0 4.144532 3.359374 7.503907 7.503906 7.503907h10c4.144531 0 7.5-3.359375 7.5-7.503907 0-4.140624-3.355469-7.5-7.5-7.5zm0 0"/><path d="m429.277344 165.695312h-10c-4.144532 0-7.503906 3.355469-7.503906 7.5 0 4.144532 3.359374 7.5 7.503906 7.5h10c4.144531 0 7.5-3.355468 7.5-7.5 0-4.144531-3.355469-7.5-7.5-7.5zm0 0"/><path d="m389.269531 165.695312h-10c-4.144531 0-7.503906 3.355469-7.503906 7.5 0 4.144532 3.359375 7.5 7.503906 7.5h10c4.144531 0 7.503907-3.355468 7.503907-7.5 0-4.144531-3.359376-7.5-7.503907-7.5zm0 0"/><path d="m469.285156 165.695312h-10.003906c-4.140625 0-7.5 3.355469-7.5 7.5 0 4.144532 3.359375 7.5 7.5 7.5h10.003906c4.144532 0 7.5-3.355468 7.5-7.5 0-4.144531-3.355468-7.5-7.5-7.5zm0 0"/><path d="m50.507812 93.789062h-10c-4.144531 0-7.503906 3.359376-7.503906 7.5 0 4.144532 3.359375 7.503907 7.503906 7.503907h10c4.144532 0 7.503907-3.359375 7.503907-7.503907 0-4.140624-3.359375-7.5-7.503907-7.5zm0 0"/><path d="m90.515625 93.789062h-10c-4.144531 0-7.503906 3.359376-7.503906 7.5 0 4.144532 3.359375 7.503907 7.503906 7.503907h10c4.144531 0 7.5-3.359375 7.5-7.503907 0-4.140624-3.355469-7.5-7.5-7.5zm0 0"/><path d="m130.523438 93.789062h-10.003907c-4.140625 0-7.5 3.359376-7.5 7.5 0 4.144532 3.359375 7.503907 7.5 7.503907h10.003907c4.144531 0 7.5-3.359375 7.5-7.503907 0-4.140624-3.359376-7.5-7.5-7.5zm0 0"/><path d="m50.507812 165.695312h-10c-4.144531 0-7.503906 3.355469-7.503906 7.5 0 4.144532 3.359375 7.5 7.503906 7.5h10c4.144532 0 7.503907-3.355468 7.503907-7.5 0-4.144531-3.359375-7.5-7.503907-7.5zm0 0"/><path d="m90.515625 165.695312h-10c-4.144531 0-7.503906 3.355469-7.503906 7.5 0 4.144532 3.359375 7.5 7.503906 7.5h10c4.144531 0 7.5-3.355468 7.5-7.5 0-4.144531-3.355469-7.5-7.5-7.5zm0 0"/><path d="m130.523438 165.695312h-10.003907c-4.140625 0-7.5 3.355469-7.5 7.5 0 4.144532 3.359375 7.5 7.5 7.5h10.003907c4.144531 0 7.5-3.355468 7.5-7.5 0-4.144531-3.359376-7.5-7.5-7.5zm0 0"/><path d="m348.550781 91.671875h-185.117187c-5.792969 0-10.5 4.710937-10.5 10.503906v70.324219c0 5.789062 4.707031 10.5 10.5 10.5h24.007812c5.121094 0 9.472656-3.660156 10.34375-8.703125 3.285156-18.941406 13.667969-22.550781 18.273438-23.207031h9.554687v44.566406c0 4.144531 3.355469 7.503906 7.5 7.503906s7.5-3.359375 7.5-7.503906v-49.066406c0-5.792969-4.710937-10.503906-10.5-10.503906h-14.324219c-.460937 0-.917968.027343-1.351562.085937-20.863281 2.609375-28.226562 21.878906-30.652344 31.828125h-15.851562v-61.324219h176.117187v61.324219h-15.851562c-2.425781-9.949219-9.785157-29.21875-30.632813-31.828125-.445312-.054687-.90625-.085937-1.371094-.085937h-14.324218c-5.789063 0-10.5 4.710937-10.5 10.503906v132.300781c-.207032 3.089844-.585938 16.695313 7.605468 25.394531 4.382813 4.652344 10.425782 7.082032 17.429688 6.96875h10.886719v10.566406h-102.597657v-10.566406l10.785157-.003906c7.121093.105469 13.148437-2.3125 17.527343-6.964844 8.171876-8.675781 7.8125-22.234375 7.605469-25.402344v-37.882812c0-4.144531-3.359375-7.503906-7.503906-7.503906-4.140625 0-7.5 3.359375-7.5 7.503906v38.042969c0 .273437.011719.53125.027344.769531.199219 2.6875-.058594 10.476562-3.550781 14.1875-.933594.988281-2.621094 2.320312-6.507813 2.25h-15.386719c-5.792968 0-10.503906 4.710938-10.503906 10.503906v19.570313c0 5.789062 4.710938 10.5 10.503906 10.5h111.597656c5.792969 0 10.503907-4.710938 10.503907-10.5v-19.570313c0-5.792968-4.710938-10.503906-10.503907-10.503906h-15.484374c-.070313.003906-.140626.003906-.210938.003906-3.644531 0-5.28125-1.28125-6.195312-2.253906-3.496094-3.710938-3.75-11.5-3.558594-14.152344.023437-.273437.03125-.53125.03125-.804687v-127.953125h9.554687c4.589844.652344 14.984375 4.25 18.269531 23.210937.878907 5.042969 5.230469 8.703125 10.347657 8.703125h24.007812c5.789063 0 10.5-4.710937 10.5-10.503906v-70.324219c0-5.792969-4.710937-10.503906-10.5-10.503906zm0 0"/><path d="m343.253906 34.746094c-2.929687-2.925782-7.679687-2.925782-10.609375 0-2.929687 2.929687-2.929687 7.679687 0 10.609375l.796875.796875h-154.898437l.796875-.796875c2.929687-2.929688 2.929687-7.679688 0-10.609375-2.929688-2.925782-7.679688-2.925782-10.609375 0l-13.601563 13.601562c-2.929687 2.933594-2.929687 7.679688 0 10.609375l13.601563 13.605469c1.464843 1.460938 3.386719 2.195312 5.304687 2.195312 1.917969 0 3.839844-.734374 5.304688-2.195312 2.929687-2.933594 2.929687-7.679688 0-10.609375l-.796875-.796875h154.898437l-.796875.796875c-2.929687 2.929687-2.929687 7.679687 0 10.609375 1.464844 1.460938 3.386719 2.195312 5.304688 2.195312s3.839843-.734374 5.304687-2.195312l13.601563-13.605469c2.929687-2.929687 2.929687-7.679687 0-10.609375zm0 0"/></svg>