<svg height="511pt" viewBox="1 -14 511.999 511" width="511pt" xmlns="http://www.w3.org/2000/svg"><path d="m504.457031 399.277344h-21.597656v-269.933594c0-16.578125-13.488281-30.0625-30.0625-30.0625h-84.632813l-65.777343-65.78125c-2.746094-2.746094-6.398438-4.257812-10.28125-4.257812-3.886719 0-7.539063 1.511718-10.285157 4.257812l-47.910156 47.910156v-66.371094c0-8.015624-6.519531-14.539062-14.539062-14.539062h-96.335938c-8.019531 0-14.542968 6.523438-14.542968 14.539062v84.242188h-49.289063c-16.574219 0-30.0625 13.484375-30.0625 30.0625v269.933594h-21.597656c-4.164063 0-7.542969 3.378906-7.542969 7.542968v45.011719c0 17.691407 14.394531 32.085938 32.085938 32.085938h447.828124c17.691407 0 32.085938-14.394531 32.085938-32.085938v-45.011719c0-4.164062-3.378906-7.542968-7.542969-7.542968zm-212.351562-354.84375 67.46875 67.472656-55.3125 55.3125-67.472657-67.472656zm18.222656 140.707031h78.136719v95.328125h-78.136719zm-84.390625-74.542969 59.457031 59.453125h-110.621093l-4.144532-4.144531zm68.957031 74.542969v95.328125h-78.136719v-95.328125zm-93.222656 0v95.328125h-32.832031c-24.980469 0-45.304688-20.320312-45.304688-45.300781v-4.726563c0-24.980468 20.324219-45.304687 45.304688-45.304687h32.832031zm-78.179687-169.640625h95.417968v78.222656h-95.417968zm0 93.570312h82.761718l-51.535156 51.53125-20.160156 20.160157c-2.820313 1.953125-5.460938 4.140625-7.90625 6.53125h-3.160156zm45.347656 186.488282h133.597656c.058594 0 .117188-.007813.171875-.007813.058594 0 .117187.007813.175781.007813h86.179688c8.042968 0 14.585937-6.542969 14.585937-14.585938v-96.335937c0-8.042969-6.542969-14.585938-14.585937-14.585938h-66.324219l20.132813-20.132812h84.757812c.414062 0 .75.335937.75.75v82.035156c0 4.167969 3.378906 7.542969 7.542969 7.542969 4.167969 0 7.546875-3.375 7.546875-7.542969v-82.035156c0-8.734375-7.105469-15.835938-15.839844-15.835938h-69.671875l12.644531-12.644531c2.15625-2.15625 3.539063-4.871094 4.039063-7.820312h78.253906c8.253906 0 14.972656 6.71875 14.972656 14.976562v269.933594h-24.398437v-119.394532c0-4.167968-3.378906-7.546874-7.546875-7.546874-4.164063 0-7.542969 3.378906-7.542969 7.546874v119.394532h-344.5625v-248.609375c0-.414063.335938-.75.75-.75h24.023438v78.3125c-.027344.734375-.042969 1.472656-.042969 2.210937v4.726563c0 33.300781 27.089843 60.390625 60.390625 60.390625zm-124.609375-166.214844c0-8.257812 6.714843-14.976562 14.972656-14.976562h49.289063v20.464843h-24.023438c-8.734375 0-15.839844 7.105469-15.839844 15.835938v248.609375h-24.398437zm452.679687 322.488281c0 9.375-7.625 16.996094-16.996094 16.996094h-447.828124c-9.375 0-16.996094-7.625-16.996094-16.996094v-37.464843h152.488281l9.78125 22.382812c2 4.582031 6.523437 7.539062 11.523437 7.539062h15.148438c4.167969 0 7.542969-3.375 7.542969-7.542968 0-4.167969-3.375-7.542969-7.542969-7.542969h-13.503906l-6.484375-14.835937h143.914062l-6.484375 14.835937h-70.835937c-4.167969 0-7.542969 3.375-7.542969 7.542969 0 4.167968 3.375 7.542968 7.542969 7.542968h72.480469c5 0 9.523437-2.960937 11.523437-7.539062l9.78125-22.382812h152.488281zm0 0"/><path d="m135.75 232.804688c0 14.21875 11.5625 25.78125 25.78125 25.78125 14.214844 0 25.78125-11.5625 25.78125-25.78125 0-14.214844-11.566406-25.78125-25.78125-25.78125-14.21875 0-25.78125 11.566406-25.78125 25.78125zm36.5625 0c0 5.945312-4.835938 10.78125-10.78125 10.78125s-10.78125-4.835938-10.78125-10.78125c0-5.941407 4.835938-10.78125 10.78125-10.78125s10.78125 4.835937 10.78125 10.78125zm0 0"/></svg>