<svg height="512pt" viewBox="0 0 512 512" width="512pt" xmlns="http://www.w3.org/2000/svg"><path d="m417.136719 441.699219h-31.800781c-8.714844.082031-15.347657-2.367188-20.269532-7.585938-11.667968-12.371093-10.097656-36.203125-10.023437-37.214843.023437-.371094.039062-.730469.039062-1.101563v-199.175781c0-4.140625-3.359375-7.5-7.5-7.5-4.144531 0-7.5 3.359375-7.5 7.5l-.003906 199.207031c-.148437 2.09375-.527344 9.628906.894531 18.773437 1.953125 12.574219 6.386719 22.601563 13.183594 29.804688 7.851562 8.328125 18.382812 12.433594 31.28125 12.289062h31.699219c.273437 0 .5.226563.5.5v39.214844c0 .273438-.226563.5-.5.5h-147.144531c-4.140626 0-7.5 3.355469-7.5 7.5 0 4.140625 3.359374 7.5 7.5 7.5h147.144531c8.546875 0 15.5-6.953125 15.5-15.5v-39.214844c0-8.542968-6.953125-15.496093-15.5-15.496093zm0 0"/><path d="m496.5 0h-396.636719c-8.546875 0-15.5 6.953125-15.5 15.5v148.796875c0 8.546875 6.953125 15.5 15.5 15.5h49.035157c7.472656 0 13.882812-5.339844 15.242187-12.695313 2.863281-15.464843 13.1875-51.898437 47.1875-56.199218.042969-.007813.085937-.007813.128906-.007813h29.324219c.277344 0 .5.226563.5.5v284.402344c0 .378906.011719.742187.039062 1.105469.074219 1.007812 1.640626 24.84375-10.027343 37.210937-4.921875 5.21875-11.566407 7.699219-20.367188 7.582031h-31.699219c-8.546874 0-15.5 6.953126-15.5 15.5v39.214844c0 8.546875 6.953126 15.5 15.5 15.5h44.769532c4.140625 0 7.5-3.359375 7.5-7.5 0-4.144531-3.359375-7.5-7.5-7.5h-44.769532c-.277343 0-.5-.226562-.5-.5v-39.214844c0-.273437.222657-.5.5-.5h31.597657c12.945312.199219 23.527343-3.960937 31.382812-12.289062 15.535157-16.46875 14.449219-43.355469 14.074219-48.609375v-284.402344c0-8.546875-6.953125-15.5-15.5-15.5h-29.324219c-.675781 0-1.34375.042969-2.003906.125-18.96875 2.398438-34.804687 12.898438-45.792969 30.359375-8.917968 14.175782-12.769531 29.890625-14.265625 37.992188-.046875.25-.25.425781-.496093.425781h-49.035157c-.277343 0-.5-.226563-.5-.5v-148.796875c0-.273438.222657-.5.5-.5h396.636719c.273438 0 .5.226562.5.5v148.796875c0 .273437-.226562.5-.5.5h-49.035156c-.246094 0-.449219-.175781-.492188-.421875-1.5-8.105469-5.351562-23.820312-14.269531-37.996094-10.988281-17.460937-26.824219-27.960937-45.804687-30.359375-.648438-.082031-1.320313-.125-1.992188-.125h-29.324219c-8.546875 0-15.5 6.953125-15.5 15.5v38.230469c0 4.140625 3.355469 7.5 7.5 7.5 4.140625 0 7.5-3.359375 7.5-7.5v-38.230469c0-.273437.222657-.5.5-.5h29.324219c.042969 0 .085938 0 .117188.003907 34.011718 4.304687 44.335937 40.738281 47.195312 56.207031 1.363281 7.351562 7.773438 12.691406 15.246094 12.691406h49.035156c8.546875 0 15.5-6.953125 15.5-15.5v-148.796875c0-8.546875-6.953125-15.5-15.5-15.5zm0 0"/><path d="m59.503906 15c4.140625 0 7.5-3.355469 7.5-7.5s-3.359375-7.5-7.5-7.5h-52.003906c-4.140625 0-7.5 3.355469-7.5 7.5v496.910156c0 4.140625 3.359375 7.5 7.5 7.5h52.003906c4.140625 0 7.5-3.359375 7.5-7.5 0-4.144531-3.359375-7.5-7.5-7.5h-44.503906v-15.050781h18.503906c4.140625 0 7.5-3.355469 7.5-7.5s-3.359375-7.5-7.5-7.5h-18.503906v-21.324219h44.503906c4.140625 0 7.5-3.355468 7.5-7.5 0-4.144531-3.359375-7.5-7.5-7.5h-44.503906v-21.324218h18.503906c4.140625 0 7.5-3.355469 7.5-7.5 0-4.144532-3.359375-7.5-7.5-7.5h-18.503906v-21.324219h18.503906c4.140625 0 7.5-3.355469 7.5-7.5s-3.359375-7.5-7.5-7.5h-18.503906v-21.324219h18.503906c4.140625 0 7.5-3.355469 7.5-7.5 0-4.140625-3.359375-7.5-7.5-7.5h-18.503906v-21.324219h44.503906c4.140625 0 7.5-3.355469 7.5-7.5 0-4.140625-3.359375-7.5-7.5-7.5h-44.503906v-21.324219h18.503906c4.140625 0 7.5-3.355468 7.5-7.5 0-4.144531-3.359375-7.5-7.5-7.5h-18.503906v-21.324218h18.503906c4.140625 0 7.5-3.355469 7.5-7.5 0-4.144532-3.359375-7.5-7.5-7.5h-18.503906v-21.324219h18.503906c4.140625 0 7.5-3.355469 7.5-7.5s-3.359375-7.5-7.5-7.5h-18.503906v-21.324219h44.503906c4.140625 0 7.5-3.355468 7.5-7.5 0-4.140625-3.359375-7.5-7.5-7.5h-44.503906v-21.328125h18.503906c4.140625 0 7.5-3.355469 7.5-7.5 0-4.140625-3.359375-7.5-7.5-7.5h-18.503906v-21.324219h18.503906c4.140625 0 7.5-3.355468 7.5-7.5 0-4.140624-3.359375-7.5-7.5-7.5h-18.503906v-21.324218h18.503906c4.140625 0 7.5-3.355469 7.5-7.5 0-4.140625-3.359375-7.5-7.5-7.5h-18.503906v-15.964844zm0 0"/></svg>