<svg height="512pt" viewBox="0 -57 512 512" width="512pt" xmlns="http://www.w3.org/2000/svg"><path d="m499.476562 43.085938c6.90625 0 12.523438-5.621094 12.523438-12.527344v-18.035156c0-6.90625-5.617188-12.523438-12.523438-12.523438h-19.039062c-6.707031 0-12.183594 5.304688-12.492188 11.9375h-189.933593c-.308594-6.632812-5.785157-11.9375-12.492188-11.9375h-19.039062c-6.707031 0-12.183594 5.304688-12.492188 11.9375h-189.933593c-.308594-6.632812-5.785157-11.9375-12.492188-11.9375h-19.039062c-6.90625 0-12.523438 5.617188-12.523438 12.523438v18.035156c0 6.90625 5.617188 12.527344 12.523438 12.527344h1.503906v125.15625h-1.503906c-6.90625 0-12.523438 5.617187-12.523438 12.523437v18.035156c0 6.90625 5.617188 12.527344 12.523438 12.527344h1.503906v142.933594h-1.503906c-6.90625 0-12.523438 5.617187-12.523438 12.523437v18.035156c0 6.90625 5.617188 12.523438 12.523438 12.523438h19.039062c6.90625 0 12.523438-5.617188 12.523438-12.523438v-3.59375h189.871093v3.59375c0 6.90625 5.617188 12.523438 12.523438 12.523438h19.039062c6.90625 0 12.523438-5.617188 12.523438-12.523438v-3.59375h189.871093v3.59375c0 6.90625 5.617188 12.523438 12.523438 12.523438h19.039062c6.90625 0 12.523438-5.617188 12.523438-12.523438v-18.035156c0-6.90625-5.617188-12.523437-12.523438-12.523437h-2.507812v-142.933594h2.507812c6.90625 0 12.523438-5.621094 12.523438-12.527344v-18.035156c0-6.90625-5.617188-12.523437-12.523438-12.523437h-2.507812v-125.15625zm-16.535156-28.054688h14.027344v13.023438h-14.027344zm-233.957031 0h14.03125v13.023438h-14.03125zm-233.953125 0h14.027344v13.023438h-14.027344zm0 181.265625v-13.023437h14.027344v13.023437zm14.027344 186.019531h-14.027344v-13.027344h14.027344zm233.957031 0h-14.03125v-13.027344h14.03125zm233.953125 0h-14.027344v-13.027344h14.027344zm0-186.019531h-14.027344v-13.023437h14.027344zm-15.027344-28.054687h-1.503906c-6.90625 0-12.523438 5.617187-12.523438 12.523437v18.035156c0 6.90625 5.617188 12.527344 12.523438 12.527344h1.503906v142.933594h-1.503906c-6.707031 0-12.183594 5.300781-12.492188 11.933593h-189.933593c-.308594-6.632812-5.785157-11.933593-12.492188-11.933593h-19.039062c-6.707031 0-12.183594 5.300781-12.492188 11.933593h-189.933593c-.308594-6.632812-5.785157-11.933593-12.492188-11.933593h-2.503906v-142.933594h2.503906c6.90625 0 12.523438-5.621094 12.523438-12.527344v-18.035156c0-6.90625-5.617188-12.523437-12.523438-12.523437h-2.503906v-125.15625h2.503906c6.90625 0 12.523438-5.621094 12.523438-12.527344v-3.59375h189.871093v3.59375c0 6.90625 5.617188 12.527344 12.523438 12.527344h19.039062c6.90625 0 12.523438-5.621094 12.523438-12.527344v-3.59375h189.871093v3.59375c0 6.90625 5.617188 12.527344 12.523438 12.527344h1.503906zm0 0"/><path d="m431.25 58.453125h-269.433594c-4.152344 0-7.515625 3.363281-7.515625 7.515625s3.363281 7.515625 7.515625 7.515625h269.433594c2.664062 0 4.828125 2.164063 4.828125 4.828125v178.734375l-24.046875-27.101563c-2.753906-3.105468-7.503906-3.386718-10.609375-.632812s-3.386719 7.503906-.632813 10.609375l35.289063 39.769531v39.339844c0 2.664062-2.164063 4.828125-4.828125 4.828125h-351.125c-2.660156 0-4.828125-2.164063-4.828125-4.828125v-36.539062c.128906-.113282.253906-.21875.375-.339844l132.003906-131.941406 89.449219 100.800781c2.753906 3.109375 7.503906 3.390625 10.605469.636719 3.105469-2.757813 3.390625-7.503907.636719-10.609376l-13.425782-15.128906 49.515625-49.492187 26.46875 29.601562c2.769531 3.09375 7.515625 3.355469 10.613281.589844 3.09375-2.765625 3.359376-7.515625.59375-10.609375l-28.207031-31.539062c-2.28125-2.570313-5.558593-4.105469-8.992187-4.207032-3.425782-.097656-6.800782 1.230469-9.230469 3.660156l-50.753906 50.730469-67.796875-76.402343c-2.277344-2.566407-5.558594-4.101563-8.992188-4.203126-3.441406-.117187-6.800781 1.230469-9.230468 3.660157l-123.632813 123.578125v-182.964844c0-2.664062 2.167969-4.828125 4.828125-4.828125h35.265625c4.152344 0 7.515625-3.363281 7.515625-7.515625s-3.363281-7.515625-7.515625-7.515625h-35.265625c-10.949219 0-19.855469 8.910156-19.855469 19.859375v240.71875c0 10.953125 8.90625 19.859375 19.855469 19.859375h351.125c10.953125 0 19.859375-8.910156 19.859375-19.859375v-240.71875c0-10.949219-8.90625-19.859375-19.859375-19.859375zm0 0"/><path d="m374.183594 154.535156c19.511718 0 35.386718-15.875 35.386718-35.390625 0-19.511719-15.875-35.386719-35.386718-35.386719-19.515625 0-35.390625 15.875-35.390625 35.386719 0 19.515625 15.875 35.390625 35.390625 35.390625zm0-55.75c11.226562 0 20.359375 9.132813 20.359375 20.359375 0 11.226563-9.132813 20.359375-20.359375 20.359375-11.230469 0-20.363282-9.132812-20.363282-20.359375 0-11.226562 9.132813-20.359375 20.363282-20.359375zm0 0"/></svg>