<svg height="512pt" viewBox="0 0 512 512" width="512pt" xmlns="http://www.w3.org/2000/svg"><path d="m111.84375 158.074219c0-.199219.066406-.464844.132812-.730469l12.386719-40.628906c.734375-2.332032 3.730469-3.460938 6.792969-3.460938 3.066406 0 6.0625 1.128906 6.792969 3.460938l12.457031 40.628906c.066406.265625.132812.53125.132812.730469 0 2.464843-3.796874 4.261719-6.660156 4.261719-1.667968 0-2.996094-.53125-3.398437-1.929688l-2.261719-8.324219h-14.054688l-2.265624 8.324219c-.398438 1.398438-1.730469 1.929688-3.394532 1.929688-2.867187 0-6.660156-1.796876-6.660156-4.261719zm24.175781-13.984375-4.863281-17.851563-4.859375 17.851563zm0 0"/><path d="m364.234375 116.847656c0-2.128906 2.265625-3.195312 4.53125-3.195312h13.652344c6.660156 0 13.320312 2.398437 13.320312 11.855468 0 5.394532-2.128906 8.921876-5.660156 10.457032 4.0625 1.53125 6.859375 3.996094 6.859375 10.65625v1.398437c0 10.523438-5.859375 14.320313-13.386719 14.320313h-14.785156c-2.796875 0-4.53125-1.46875-4.53125-3.132813zm10.324219 15.121094h6.996094c2.527343 0 3.796874-2.332031 3.796874-4.597656 0-2.332032-1.265624-4.660156-3.796874-4.660156h-6.996094zm6.660156 21.3125c3.332031 0 5.332031-1.867188 5.332031-6.128906v-1.066406c0-4.527344-2-6.125-5.332031-6.125h-6.65625v13.320312zm0 0"/><path d="m281.789062 408.722656h35.890626c4.144531 0 7.5-3.359375 7.5-7.503906 0-4.140625-3.355469-7.5-7.5-7.5h-35.890626c-4.144531 0-7.5 3.359375-7.5 7.5 0 4.144531 3.355469 7.503906 7.5 7.503906zm0 0"/><path d="m415.335938 401.21875c0-4.144531-3.359376-7.5-7.5-7.5h-65.070313c-4.140625 0-7.5 3.355469-7.5 7.5s3.359375 7.5 7.5 7.5h65.070313c4.140624.003906 7.5-3.355469 7.5-7.5zm0 0"/><path d="m477.585938 393.71875h-39.597657c-4.144531 0-7.5 3.355469-7.5 7.5s3.355469 7.5 7.5 7.5h39.597657c4.144531 0 7.5-3.355469 7.5-7.5s-3.355469-7.5-7.5-7.5zm0 0"/><path d="m281.789062 437.191406h45.476563c4.144531 0 7.5-3.355468 7.5-7.5 0-4.144531-3.355469-7.5-7.5-7.5h-45.476563c-4.144531 0-7.5 3.355469-7.5 7.5 0 4.144532 3.355469 7.5 7.5 7.5zm0 0"/><path d="m440.875 429.691406c0-4.144531-3.355469-7.5-7.5-7.5h-77.054688c-4.144531 0-7.503906 3.355469-7.503906 7.5 0 4.144532 3.359375 7.5 7.503906 7.5h77.054688c4.144531 0 7.5-3.355468 7.5-7.5zm0 0"/><path d="m477.585938 422.191406h-17.683594c-4.144532 0-7.5 3.355469-7.5 7.5 0 4.144532 3.355468 7.5 7.5 7.5h17.683594c4.144531 0 7.5-3.355468 7.5-7.5 0-4.144531-3.355469-7.5-7.5-7.5zm0 0"/><path d="m281.789062 468.140625h78.316407c4.144531 0 7.503906-3.359375 7.503906-7.5 0-4.144531-3.359375-7.503906-7.503906-7.503906h-78.316407c-4.144531 0-7.5 3.359375-7.5 7.503906 0 4.140625 3.355469 7.5 7.5 7.5zm0 0"/><path d="m420.742188 453.136719h-34.105469c-4.144531 0-7.5 3.359375-7.5 7.503906 0 4.140625 3.355469 7.5 7.5 7.5h34.105469c4.144531 0 7.5-3.359375 7.5-7.5.003906-4.144531-3.355469-7.503906-7.5-7.503906zm0 0"/><path d="m477.585938 453.136719h-32.84375c-4.144532 0-7.5 3.359375-7.5 7.503906 0 4.140625 3.355468 7.5 7.5 7.5h32.84375c4.144531 0 7.5-3.359375 7.5-7.5 0-4.144531-3.355469-7.503906-7.5-7.503906zm0 0"/><path d="m289.789062 378.050781h179.800782c8.546875 0 15.496094-6.953125 15.496094-15.496093v-67.714844c0-8.546875-6.949219-15.496094-15.496094-15.496094h-107.730469c-4.144531 0-7.503906 3.355469-7.503906 7.5s3.359375 7.5 7.503906 7.5h107.730469c.273437 0 .496094.222656.496094.496094v67.714844c0 .273437-.222657.496093-.496094.496093h-7.109375l-36.425781-41.054687c-2.277344-2.566406-5.550782-4.097656-8.980469-4.199219-3.425781-.121094-6.785157 1.230469-9.210938 3.65625l-16.175781 16.164063-23.691406-26.699219c-2.277344-2.566407-5.550782-4.09375-8.976563-4.199219-3.453125-.0625-6.785156 1.230469-9.214843 3.65625l-52.699219 52.675781h-7.320313c-.273437 0-.496094-.222656-.496094-.496093v-67.714844c0-.273438.222657-.496094.496094-.496094h25.277344c4.144531 0 7.5-3.359375 7.5-7.5 0-4.144531-3.355469-7.503906-7.5-7.503906h-25.273438c-8.546874 0-15.5 6.953125-15.5 15.5v67.714844c0 8.542968 6.953126 15.496093 15.5 15.496093zm68.746094-55.191406 31.398438 35.386719c2.753906 3.101562 7.492187 3.382812 10.59375.632812 2.90625-2.578125 3.335937-6.90625 1.109375-9.992187l14.957031-14.949219 25.828125 29.113281h-124.09375zm0 0"/><path d="m292.570312 261.335938h62.667969c10.082031 0 18.28125-8.199219 18.28125-18.28125v-55.285157c0-10.082031-8.199219-18.28125-18.28125-18.28125h-62.667969c-10.082031 0-18.28125 8.199219-18.28125 18.28125v55.285157c0 10.082031 8.199219 18.28125 18.28125 18.28125zm6.621094-15 24.714844-21.769532 24.714844 21.769532zm59.328125-52.253907v40.980469l-23.265625-20.492188zm-11.808593-9.59375-22.804688 20.089844-22.808594-20.089844zm-57.421876 9.59375 23.265626 20.492188-23.265626 20.488281zm0 0"/><path d="m404.136719 261.335938h62.667969c10.082031 0 18.28125-8.199219 18.28125-18.28125v-55.285157c0-10.082031-8.199219-18.28125-18.28125-18.28125h-62.667969c-10.082031 0-18.28125 8.199219-18.28125 18.28125v55.285157c0 10.082031 8.199219 18.28125 18.28125 18.28125zm6.621093-15 24.714844-21.769532 24.714844 21.769532zm59.328126-52.253907v40.980469l-23.265626-20.492188zm-11.808594-9.59375-22.804688 20.089844-22.808594-20.089844zm-57.421875 9.59375 23.265625 20.492188-23.265625 20.488281zm0 0"/><path d="m54.769531 28.792969c-12.140625 0-22.015625 9.875-22.015625 22.015625 0 12.136718 9.875 22.011718 22.015625 22.011718 12.136719 0 22.011719-9.875 22.011719-22.011718 0-12.140625-9.875-22.015625-22.011719-22.015625zm0 29.023437c-3.867187 0-7.011719-3.144531-7.011719-7.007812 0-3.867188 3.144532-7.011719 7.011719-7.011719 3.863281 0 7.011719 3.144531 7.011719 7.011719 0 3.863281-3.148438 7.007812-7.011719 7.007812zm0 0"/><path d="m110.816406 28.792969c-12.140625 0-22.011718 9.875-22.011718 22.015625 0 12.136718 9.871093 22.011718 22.011718 22.011718 12.136719 0 22.011719-9.875 22.011719-22.011718 0-12.140625-9.875-22.015625-22.011719-22.015625zm0 29.023437c-3.867187 0-7.011718-3.144531-7.011718-7.007812 0-3.867188 3.144531-7.011719 7.011718-7.011719 3.863282 0 7.007813 3.144531 7.007813 7.011719 0 3.863281-3.144531 7.007812-7.007813 7.007812zm0 0"/><path d="m166.863281 28.792969c-12.136719 0-22.011719 9.875-22.011719 22.015625 0 12.136718 9.875 22.011718 22.011719 22.011718s22.011719-9.875 22.011719-22.011718c0-12.140625-9.875-22.015625-22.011719-22.015625zm0 29.023437c-3.867187 0-7.011719-3.144531-7.011719-7.007812 0-3.867188 3.144532-7.011719 7.011719-7.011719 3.867188 0 7.011719 3.144531 7.011719 7.011719 0 3.863281-3.144531 7.007812-7.011719 7.007812zm0 0"/><path d="m478.984375 0h-445.972656c-18.203125 0-33.011719 14.808594-33.011719 33.011719v61.527343c0 .074219.0078125.148438.0117188.226563-.0039063.078125-.0117188.152344-.0117188.230469v41.652344c0 4.144531 3.359375 7.5 7.5 7.5 4.144531 0 7.5-3.355469 7.5-7.5v-34.152344h232.9375v394.152344h-214.980469c-9.898437 0-17.953125-8.082032-17.953125-18.015626v-294.976562c0-4.144531-3.359375-7.5-7.5-7.5-4.144531 0-7.503906 3.355469-7.503906 7.5v294.976562c0 17.363282 13.453125 31.628907 30.464844 32.910157.796875.289062 1.652344.453125 2.546875.453125h445.972656c18.203125 0 33.015625-14.808594 33.015625-33.011719v-445.972656c0-18.203125-14.8125-33.011719-33.015625-33.011719zm18.011719 478.984375c0 9.933594-8.078125 18.011719-18.011719 18.011719h-216.042969v-394.957032h234.054688zm0-391.949219h-481.992188v-54.023437c0-9.929688 8.078125-18.007813 18.011719-18.007813h445.972656c9.929688 0 18.011719 8.078125 18.011719 18.007813v54.023437zm0 0"/><path d="m236.589844 184.984375c0-8.542969-6.953125-15.496094-15.5-15.496094h-179.800782c-8.546874 0-15.5 6.953125-15.5 15.496094v67.714844c0 8.546875 6.953126 15.5 15.5 15.5h179.800782c8.546875 0 15.5-6.953125 15.5-15.5zm-166.761719 68.210937 40.207031-40.1875 31.402344 35.386719c2.75 3.097657 7.492188 3.382813 10.589844.632813 2.90625-2.582032 3.335937-6.910156 1.109375-9.996094l14.957031-14.945312 25.828125 29.109374zm151.757813-.496093c0 .273437-.21875.496093-.496094.496093h-7.105469l-36.429687-41.050781c-2.273438-2.566406-5.546876-4.097656-8.976563-4.203125-3.46875-.113281-6.785156 1.230469-9.214844 3.65625l-16.171875 16.164063-23.695312-26.699219c-2.273438-2.566406-5.546875-4.09375-8.976563-4.199219-3.402343-.089843-6.785156 1.230469-9.210937 3.65625l-52.699219 52.675781h-7.320313c-.273437 0-.496093-.222656-.496093-.496093v-67.714844c0-.269531.21875-.496094.496093-.496094h179.800782c.273437 0 .496094.226563.496094.496094zm0 0"/><path d="m55.757812 286.269531h-18.058593c-4.144531 0-7.5 3.355469-7.5 7.5 0 4.140625 3.355469 7.5 7.5 7.5h18.058593c4.144532 0 7.503907-3.359375 7.503907-7.5 0-4.144531-3.359375-7.5-7.503907-7.5zm0 0"/><path d="m82.988281 301.269531h141.691407c4.144531 0 7.5-3.359375 7.5-7.5 0-4.144531-3.355469-7.5-7.5-7.5h-141.691407c-4.144531 0-7.5 3.355469-7.5 7.5 0 4.140625 3.355469 7.5 7.5 7.5zm0 0"/><path d="m55.757812 315.75h-18.058593c-4.144531 0-7.5 3.355469-7.5 7.5s3.355469 7.5 7.5 7.5h18.058593c4.144532 0 7.503907-3.355469 7.503907-7.5s-3.359375-7.5-7.503907-7.5zm0 0"/><path d="m82.988281 330.75h141.691407c4.144531 0 7.5-3.355469 7.5-7.5 0-4.140625-3.355469-7.5-7.5-7.5h-141.691407c-4.144531 0-7.5 3.359375-7.5 7.5 0 4.144531 3.355469 7.5 7.5 7.5zm0 0"/><path d="m55.757812 345.230469h-18.058593c-4.144531 0-7.5 3.359375-7.5 7.5 0 4.144531 3.355469 7.503906 7.5 7.503906h18.058593c4.144532 0 7.503907-3.359375 7.503907-7.503906 0-4.140625-3.359375-7.5-7.503907-7.5zm0 0"/><path d="m82.988281 360.234375h141.691407c4.144531 0 7.5-3.359375 7.5-7.5 0-4.144531-3.355469-7.503906-7.5-7.503906h-141.691407c-4.144531 0-7.5 3.359375-7.5 7.503906 0 4.140625 3.355469 7.5 7.5 7.5zm0 0"/><path d="m25.789062 449.855469c0 10.082031 8.203126 18.28125 18.28125 18.28125h62.671876c10.078124 0 18.28125-8.199219 18.28125-18.28125v-55.285157c0-10.082031-8.203126-18.285156-18.28125-18.285156h-62.671876c-10.078124 0-18.28125 8.203125-18.28125 18.285156zm24.902344 3.28125 24.714844-21.765625 24.714844 21.765625zm59.328125-52.253907v40.980469l-23.265625-20.488281zm-11.804687-9.59375-22.808594 20.089844-22.808594-20.089844zm-57.421875 9.59375 23.265625 20.492188-23.265625 20.488281zm0 0"/><path d="m155.636719 468.136719h62.667969c10.082031 0 18.285156-8.199219 18.285156-18.28125v-55.285157c0-10.082031-8.203125-18.285156-18.285156-18.285156h-62.667969c-10.078125 0-18.28125 8.203125-18.28125 18.285156v55.285157c0 10.082031 8.203125 18.28125 18.28125 18.28125zm6.621093-15 24.714844-21.765625 24.714844 21.765625zm59.328126-52.253907v40.980469l-23.261719-20.492187zm-11.804688-9.59375-22.808594 20.089844-22.808594-20.089844zm-57.421875 9.59375 23.265625 20.492188-23.265625 20.488281zm0 0"/></svg>