<svg height="512pt" viewBox="0 -27 512 511" width="512pt" xmlns="http://www.w3.org/2000/svg"><path d="m504.457031 372.160156h-21.597656v-269.929687c0-16.578125-13.488281-30.066407-30.0625-30.066407h-47.441406v-38.285156c0-18.40625-14.972657-33.378906-33.378907-33.378906h-68.953124c-4.167969 0-7.546876 3.378906-7.546876 7.542969 0 4.167969 3.378907 7.546875 7.546876 7.546875h68.953124c10.085938 0 18.289063 8.203125 18.289063 18.289062v37.046875h-268.058594v-37.046875c0-10.085937 8.203125-18.289062 18.289063-18.289062h115.453125c4.167969 0 7.542969-3.378906 7.542969-7.546875 0-4.164063-3.375-7.542969-7.542969-7.542969h-115.453125c-18.402344 0-33.375 14.972656-33.375 33.378906v38.285156h-47.917969c-16.574219 0-30.0625 13.488282-30.0625 30.066407v269.933593h-21.597656c-4.164063 0-7.542969 3.375-7.542969 7.542969v45.011719c0 17.691406 14.394531 32.085938 32.085938 32.085938h447.828124c17.691407 0 32.085938-14.394532 32.085938-32.085938v-45.011719c0-4.167969-3.378906-7.546875-7.542969-7.546875zm-99.101562-284.90625h47.441406c8.257813 0 14.972656 6.71875 14.972656 14.976563v269.933593h-24.398437v-248.609374c0-8.730469-7.105469-15.835938-15.839844-15.835938h-22.175781zm-264.859375 183.820313h23.46875c4.167968 0 7.542968-3.375 7.542968-7.542969s-3.375-7.542969-7.542968-7.542969h-23.46875c-10.082032 0-18.285156-8.207031-18.285156-18.289062v-151.6875h268.054687v151.6875c0 10.082031-8.203125 18.289062-18.289063 18.289062h-159.675781c-4.164062 0-7.542969 3.375-7.542969 7.542969s3.378907 7.542969 7.542969 7.542969h159.675781c18.40625 0 33.378907-14.972657 33.378907-33.375v-114.894531h22.175781c.414062 0 .75.335937.75.75v248.605468h-344.5625v-248.605468c0-.414063.335938-.75.75-.75h22.652344v114.894531c0 18.402343 14.972656 33.375 33.375 33.375zm187.460937 116.175781-6.484375 14.835938h-130.945312l-6.484375-14.835938zm-283.726562-285.019531c0-8.257813 6.714843-14.976563 14.972656-14.976563h47.917969v20.464844h-22.652344c-8.734375 0-15.839844 7.105469-15.839844 15.835938v248.605468h-24.398437zm452.679687 322.488281c0 9.371094-7.621094 16.996094-16.996094 16.996094h-447.828124c-9.375 0-16.996094-7.625-16.996094-16.996094v-37.46875h152.488281l9.78125 22.386719c2 4.578125 6.523437 7.539062 11.519531 7.539062h134.238282c5 0 9.523437-2.960937 11.519531-7.539062l9.785156-22.386719h152.488281zm0 0"/><path d="m115.808594 312.316406h102.34375c4.167968 0 7.546875-3.378906 7.546875-7.546875 0-4.164062-3.378907-7.542969-7.546875-7.542969h-102.34375c-4.164063 0-7.542969 3.378907-7.542969 7.542969 0 4.167969 3.378906 7.546875 7.542969 7.546875zm0 0"/><path d="m245.820312 312.316406h42.472657c4.167969 0 7.542969-3.378906 7.542969-7.546875 0-4.164062-3.375-7.542969-7.542969-7.542969h-42.472657c-4.167968 0-7.542968 3.378907-7.542968 7.542969 0 4.167969 3.375 7.546875 7.542968 7.546875zm0 0"/><path d="m316.230469 312.316406h79.960937c4.164063 0 7.542969-3.378906 7.542969-7.546875 0-4.164062-3.378906-7.542969-7.542969-7.542969h-79.960937c-4.167969 0-7.546875 3.378907-7.546875 7.542969 0 4.167969 3.378906 7.546875 7.546875 7.546875zm0 0"/><path d="m115.808594 343.222656h51.394531c4.167969 0 7.542969-3.375 7.542969-7.542968 0-4.167969-3.375-7.542969-7.542969-7.542969h-51.394531c-4.164063 0-7.542969 3.375-7.542969 7.542969 0 4.167968 3.378906 7.542968 7.542969 7.542968zm0 0"/><path d="m316.230469 328.136719h-113.101563c-4.167968 0-7.542968 3.375-7.542968 7.542969 0 4.167968 3.375 7.542968 7.542968 7.542968h113.101563c4.167969 0 7.542969-3.375 7.542969-7.542968 0-4.167969-3.378907-7.542969-7.542969-7.542969zm0 0"/><path d="m396.191406 328.136719h-56.707031c-4.164063 0-7.542969 3.375-7.542969 7.542969 0 4.167968 3.378906 7.542968 7.542969 7.542968h56.707031c4.164063 0 7.542969-3.375 7.542969-7.542968 0-4.167969-3.378906-7.542969-7.542969-7.542969zm0 0"/><path d="m181.710938 209.046875c.820312.285156 1.65625.417969 2.480468.417969 3.121094 0 6.039063-1.949219 7.125-5.0625l2.242188-6.441406 12.5625-.464844c.445312 2 .988281 3.960937 1.640625 5.867187l-9.128907 6.941407c-1.578124 1.199218-2.617187 2.96875-2.902343 4.925781l-2.207031 15.25c-.597657 4.125 2.257812 7.953125 6.382812 8.550781.367188.050781.730469.078125 1.089844.078125 3.691406 0 6.914062-2.707031 7.457031-6.464844l1.765625-12.199219 4.46875-3.394531c9.328125 13.363281 24.34375 22.054688 41.261719 22.058594 16.9375 0 31.96875-8.71875 41.292969-22.105469l4.53125 3.445313 1.765624 12.195312c.546876 3.757813 3.769532 6.464844 7.457032 6.464844.359375 0 .726562-.023437 1.09375-.078125 4.121094-.597656 6.980468-4.425781 6.382812-8.546875l-2.207031-15.253906c-.285156-1.957031-1.328125-3.726563-2.902344-4.921875l-9.207031-7c.644531-1.894532 1.179688-3.835938 1.621094-5.816406l12.660156.472656 2.242188 6.4375c1.085937 3.113281 4.003906 5.066406 7.125 5.066406.824218 0 1.660156-.136719 2.480468-.421875 3.933594-1.371094 6.015625-5.671875 4.644532-9.605469l-3.9375-11.304687c-1.019532-2.933594-3.738282-4.941407-6.84375-5.058594l-17.074219-.636719c-.003907-.125-.019531-.25-.023438-.375-.023437-.402344-.046875-.800781-.078125-1.199218l14.117188-6.351563c3.261718-1.46875 5.046875-5.023437 4.269531-8.515625l-3.441406-15.484375c-.902344-4.070313-4.925781-6.636719-9-5.730469-4.066407.90625-6.632813 4.933594-5.726563 9l2.105469 9.492188-5.589844 2.515625c-4.289062-11.6875-12.328125-21.410157-22.5625-27.535157 1.5625-3.460937 2.441407-7.296874 2.441407-11.335937 0-15.242187-12.398438-27.640625-27.640626-27.640625-15.242187 0-27.640624 12.398438-27.640624 27.640625 0 4.039063.890624 7.867187 2.457031 11.324219-10.230469 6.117187-18.269531 15.835937-22.5625 27.511718l-5.507813-2.480468 2.105469-9.492188c.90625-4.066406-1.660156-8.09375-5.726563-9-4.066406-.90625-8.097656 1.660156-9 5.730469l-3.441406 15.484375c-.777344 3.492188 1.007813 7.050781 4.269532 8.515625l14.023437 6.308594c-.03125.441406-.058594.882812-.082031 1.324219-.003906.097656-.015625.199218-.019532.300781l-16.980468.628906c-3.105469.117187-5.820313 2.125-6.84375 5.058594l-3.9375 11.304687c-1.363282 3.933594.714844 8.234375 4.652344 9.605469zm109.996093-29.226563c.019531.148438.035157.296876.050781.441407.070313.597656.128907 1.191406.171876 1.792969.019531.234374.039062.46875.050781.707031.222656 3.941406-.066407 7.914062-.960938 11.761719-.910156 3.910156-2.132812 7.09375-3.992187 10.414062-.289063.511719-.59375 1.03125-.914063 1.554688-1.066406 1.742187-2.03125 3.089843-3.34375 4.65625-4.582031 5.480468-10.859375 9.734374-17.785156 11.640624-.070313.019532-.140625.03125-.210937.050782-.421876.117187-.847657.222656-1.277344.320312v-43.339844zm-35.753906-65.457031c6.921875 0 12.550781 5.632813 12.550781 12.554688 0 2.027343-.492187 3.9375-1.351562 5.636719-3.609375-.851563-7.351563-1.316407-11.203125-1.316407-3.847657 0-7.589844.464844-11.199219 1.316407-.855469-1.699219-1.351562-3.609376-1.351562-5.636719 0-6.921875 5.632812-12.554688 12.554687-12.554688zm0 31.960938c12.941406 0 24.308594 7.371093 30.683594 18.410156h-61.371094c6.375-11.039063 17.746094-18.410156 30.6875-18.410156zm-35.972656 35.652343c.039062-.542968.089843-1.085937.15625-1.625.019531-.175781.039062-.355468.0625-.53125h28.207031v43.339844c-.449219-.101562-.894531-.214844-1.339844-.335937-.046875-.011719-.09375-.019531-.140625-.035157-3.785156-1.050781-6.429687-2.261718-9.738281-4.441406-10.886719-7.164062-17.34375-20.234375-17.339844-33.175781 0-1.074219.050782-2.125.132813-3.195313zm0 0"/><path d="m150.597656 36.980469c-.414062-.269531-.847656-.5-1.308594-.691407-.453124-.191406-.925781-.332031-1.410156-.433593-.964844-.191407-1.96875-.191407-2.945312 0-.484375.101562-.957032.242187-1.410156.433593-.460938.191407-.894532.421876-1.304688.691407-.414062.273437-.796875.59375-1.148438.9375-1.292968 1.261719-2.203124 3.503906-2.203124 5.339843 0 4.234376 3.40625 7.546876 7.542968 7.546876 1.984375 0 3.925782-.804688 5.332032-2.214844.34375-.34375.664062-.734375.9375-1.144532.554687-.839843.921874-1.734374 1.125-2.71875.398437-1.921874-.046876-4.027343-1.125-5.660156-.472657-.71875-1.394532-1.632812-2.082032-2.085937zm0 0"/><path d="m175.402344 36.289062c-.453125-.191406-.9375-.332031-1.410156-.433593-.976563-.191407-1.980469-.191407-2.957032 0-.472656.101562-.957031.242187-1.40625.433593-1.628906.683594-3.066406 2.050782-3.855468 3.621094-1.414063 2.820313-.886719 6.453125 1.410156 8.679688.339844.351562.734375.664062 1.144531.933594.402344.273437.847656.515624 1.300781.695312.933594.375 1.914063.550781 2.886719.546875 1.957031-.011719 3.878906-.765625 5.328125-2.175781 1.140625-1.109375 1.898438-2.628906 2.140625-4.203125.289063-1.886719-.109375-3.738281-1.195313-5.324219-.804687-1.179688-2.085937-2.222656-3.386718-2.773438zm0 0"/><path d="m206.019531 41.78125c-.195312-.9375-.621093-1.949219-1.128906-2.71875-.511719-.78125-1.292969-1.566406-2.082031-2.082031-.410156-.269531-.855469-.503907-1.304688-.691407-.453125-.191406-.925781-.332031-1.410156-.433593-.976562-.191407-1.980469-.191407-2.945312 0-1.472657.308593-2.8125 1.011719-3.863282 2.0625-2.550781 2.550781-2.894531 6.546875-.9375 9.523437 1.324219 2.015625 3.859375 3.359375 6.269532 3.359375 1.988281 0 3.929687-.804687 5.339843-2.210937 1.699219-1.699219 2.554688-4.4375 2.0625-6.808594zm0 0"/></svg>