<?xml version="1.0" encoding="UTF-8" standalone="no"?>
<!DOCTYPE svg PUBLIC "-//W3C//DTD SVG 1.1//EN" "http://www.w3.org/Graphics/SVG/1.1/DTD/svg11.dtd">
<svg width="100%" height="100%" viewBox="0 0 511 511" version="1.1" xmlns="http://www.w3.org/2000/svg" xmlns:xlink="http://www.w3.org/1999/xlink" xml:space="preserve" xmlns:serif="http://www.serif.com/" style="fill-rule:evenodd;clip-rule:evenodd;stroke-linejoin:round;stroke-miterlimit:1.41421;">
    <path d="M232.543,319.683L206.184,319.683C202.051,319.683 198.699,323.036 198.699,327.173C198.699,331.309 202.051,334.658 206.184,334.658L232.543,334.658C236.675,334.658 240.028,331.309 240.028,327.173C240.028,323.036 236.675,319.683 232.543,319.683Z" style="fill:white;fill-rule:nonzero;"/>
    <path d="M231.128,367.645C235.264,367.645 238.613,364.296 238.613,360.159C238.613,356.023 235.264,352.67 231.128,352.67L206.184,352.67C202.051,352.67 198.699,356.023 198.699,360.159C198.699,364.296 202.051,367.645 206.184,367.645L231.128,367.645Z" style="fill:white;fill-rule:nonzero;"/>
    <path d="M45.115,25.92C32.998,25.92 23.142,35.78 23.142,47.893C23.142,60.01 32.998,69.866 45.115,69.866C57.228,69.866 67.084,60.01 67.084,47.893C67.084,35.78 57.228,25.92 45.115,25.92ZM45.115,54.891C41.256,54.891 38.117,51.749 38.117,47.893C38.117,44.033 41.256,40.895 45.115,40.895C48.971,40.895 52.113,44.033 52.113,47.893C52.113,51.749 48.975,54.891 45.115,54.891Z" style="fill:white;fill-rule:nonzero;"/>
    <path d="M101.053,25.92C88.94,25.92 79.08,35.78 79.08,47.893C79.08,60.01 88.94,69.866 101.053,69.866C113.17,69.866 123.026,60.01 123.026,47.893C123.026,35.78 113.17,25.92 101.053,25.92ZM101.053,54.891C97.197,54.891 94.055,51.749 94.055,47.893C94.055,44.033 97.197,40.895 101.053,40.895C104.913,40.895 108.051,44.033 108.051,47.893C108.051,51.749 104.913,54.891 101.053,54.891Z" style="fill:white;fill-rule:nonzero;"/>
    <path d="M156.995,25.92C144.878,25.92 135.022,35.78 135.022,47.893C135.022,60.01 144.878,69.866 156.995,69.866C169.108,69.866 178.968,60.01 178.968,47.893C178.968,35.78 169.108,25.92 156.995,25.92ZM156.995,54.891C153.135,54.891 149.997,51.749 149.997,47.893C149.997,44.033 153.135,40.895 156.995,40.895C160.854,40.895 163.993,44.033 163.993,47.893C163.993,51.749 160.854,54.891 156.995,54.891Z" style="fill:white;fill-rule:nonzero;"/>
    <path d="M154.64,252.826L70.862,252.826C58.764,252.826 48.916,262.674 48.916,274.775L48.916,349.177C48.916,361.278 58.764,371.122 70.862,371.122L154.64,371.122C166.738,371.122 176.586,361.278 176.586,349.177L176.586,274.775C176.586,262.674 166.738,252.826 154.64,252.826ZM150.09,267.8L112.749,300.849L75.412,267.8L150.09,267.8ZM63.891,344.093L63.891,277.601L101.455,310.845L63.891,344.093ZM72.862,356.148L112.753,320.845L152.64,356.148L72.862,356.148ZM161.611,344.093L124.047,310.845L161.611,277.601L161.611,344.093Z" style="fill:white;fill-rule:nonzero;"/>
    <path d="M239.56,256.35L206.184,256.35C202.051,256.35 198.699,259.703 198.699,263.839C198.699,267.976 202.051,271.325 206.184,271.325L239.56,271.325C243.697,271.325 247.046,267.976 247.046,263.839C247.046,259.703 243.693,256.35 239.56,256.35Z" style="fill:white;fill-rule:nonzero;"/>
    <path d="M383.05,271.325L403.76,271.325C407.896,271.325 411.245,267.976 411.245,263.839C411.245,259.703 407.896,256.35 403.76,256.35L383.05,256.35C378.918,256.35 375.565,259.703 375.565,263.839C375.565,267.976 378.918,271.325 383.05,271.325Z" style="fill:white;fill-rule:nonzero;"/>
    <path d="M247.046,296.826C247.046,292.689 243.697,289.336 239.56,289.336L206.184,289.336C202.051,289.336 198.699,292.689 198.699,296.826C198.699,300.962 202.051,304.311 206.184,304.311L239.56,304.311C243.693,304.311 247.046,300.958 247.046,296.826Z" style="fill:white;fill-rule:nonzero;"/>
    <path d="M209.365,151.441L231.128,151.441C235.264,151.441 238.613,148.092 238.613,143.956C238.613,139.819 235.264,136.47 231.128,136.47L209.365,136.47C205.233,136.47 201.88,139.819 201.88,143.956C201.88,148.092 205.233,151.441 209.365,151.441Z" style="fill:white;fill-rule:nonzero;"/>
    <path d="M395.74,143.956C395.74,139.819 392.391,136.47 388.255,136.47L255.494,136.47C251.358,136.47 248.009,139.819 248.009,143.956C248.009,148.092 251.358,151.441 255.494,151.441L388.255,151.441C392.388,151.441 395.74,148.092 395.74,143.956Z" style="fill:white;fill-rule:nonzero;"/>
    <path d="M319.537,190.205L368.087,190.205C372.224,190.205 375.577,186.853 375.577,182.72C375.577,178.584 372.224,175.231 368.087,175.231L319.537,175.231C315.401,175.231 312.052,178.584 312.052,182.72C312.052,186.853 315.401,190.205 319.537,190.205Z" style="fill:white;fill-rule:nonzero;"/>
    <path d="M279.011,175.231C274.878,175.231 271.525,178.584 271.525,182.72C271.525,186.853 274.878,190.205 279.011,190.205L294.145,190.205C298.282,190.205 301.635,186.853 301.635,182.72C301.635,178.584 298.282,175.231 294.145,175.231L279.011,175.231Z" style="fill:white;fill-rule:nonzero;"/>
    <path d="M262.141,182.72C262.141,178.584 258.792,175.231 254.656,175.231L209.369,175.231C205.233,175.231 201.88,178.584 201.88,182.72C201.88,186.853 205.233,190.205 209.369,190.205L254.656,190.205C258.789,190.205 262.141,186.853 262.141,182.72Z" style="fill:white;fill-rule:nonzero;"/>
    <path d="M67.747,156.252L67.747,145.683C67.747,142.096 69.069,138.603 72.308,136.767C73.517,136.08 74.807,135.761 76.133,135.628C79.934,135.246 82.881,132.154 82.881,128.334L82.881,127.979C82.881,123.94 79.607,120.665 75.564,120.665L75.154,120.665C66.156,120.954 52.772,127.85 52.772,145.683L52.772,152.26L45.63,157.063C42.133,159.41 40.363,163.671 41.33,167.948C41.918,170.568 43.603,172.817 45.833,174.314L52.772,178.977L52.772,185.558C52.772,203.387 66.156,210.287 75.154,210.576C75.236,210.58 75.318,210.58 75.4,210.58C79.423,210.58 82.745,207.383 82.878,203.332C83.01,199.2 79.766,195.741 75.634,195.609C75.614,195.609 73.556,195.418 71.657,194.287C69.981,193.289 67.747,191.297 67.747,185.558L67.747,174.989C67.747,172.494 66.507,170.162 64.437,168.775L59.743,165.62L64.437,162.47C66.507,161.075 67.747,158.743 67.747,156.252Z" style="fill:white;fill-rule:nonzero;"/>
    <path d="M89.041,193.488C87.065,193.488 85.139,192.689 83.739,191.301C82.351,189.905 81.544,187.975 81.544,185.999C81.544,184.482 81.969,183.125 82.811,181.847C83.08,181.437 83.4,181.047 83.739,180.712C85.139,179.313 87.065,178.513 89.041,178.513C91.01,178.513 92.936,179.313 94.332,180.712C95.688,182.065 96.531,184.088 96.531,186.003C96.531,187.975 95.731,189.905 94.332,191.301C92.936,192.689 91.01,193.488 89.041,193.488Z" style="fill:white;fill-rule:nonzero;"/>
    <path d="M185.443,157.063L178.301,152.26L178.301,145.683C178.301,127.85 164.917,120.95 155.919,120.665L155.509,120.665C151.466,120.665 148.192,123.94 148.192,127.979L148.192,128.334C148.192,132.154 151.139,135.246 154.94,135.628C156.266,135.761 157.556,136.08 158.765,136.767C162.005,138.603 163.326,142.096 163.326,145.683L163.326,156.252C163.326,158.743 164.566,161.075 166.636,162.466L171.33,165.62L166.636,168.771C164.57,170.162 163.326,172.494 163.326,174.985L163.326,185.554C163.326,191.293 161.096,193.285 159.416,194.283C157.517,195.414 155.459,195.605 155.439,195.609C151.307,195.741 148.063,199.196 148.199,203.332C148.328,207.383 151.654,210.576 155.677,210.576C155.759,210.576 155.837,210.576 155.919,210.572C164.917,210.287 178.301,203.387 178.301,185.554L178.301,178.977L185.244,174.311C187.474,172.814 189.155,170.568 189.743,167.944C190.71,163.671 188.94,159.406 185.443,157.063Z" style="fill:white;fill-rule:nonzero;"/>
    <path d="M120.928,181.854C119.837,180.24 118.129,179.067 116.176,178.661C115.205,178.463 114.207,178.463 113.248,178.661C112.768,178.755 112.293,178.903 111.841,179.094C110.535,179.644 109.26,180.677 108.488,181.847C106.585,184.743 106.944,188.833 109.416,191.301C110.219,192.104 110.819,192.486 111.841,192.919C113.073,193.437 114.476,193.531 115.786,193.344C116.48,193.246 117.166,193.071 117.813,192.794C120.967,191.441 122.663,187.855 122.043,184.545C121.868,183.601 121.466,182.646 120.928,181.854Z" style="fill:white;fill-rule:nonzero;"/>
    <path d="M146.566,181.87C145.19,179.87 142.878,178.513 140.383,178.513C138.406,178.513 136.48,179.313 135.08,180.708C134.344,181.449 133.868,182.17 133.463,183.137C132.332,185.874 132.963,189.196 135.08,191.301C136.476,192.689 138.406,193.488 140.383,193.488C142.348,193.488 144.277,192.689 145.673,191.301C148.219,188.771 148.57,184.79 146.566,181.87Z" style="fill:white;fill-rule:nonzero;"/>
    <path d="M165.658,438.234L29.93,438.234C21.684,438.234 14.975,431.524 14.975,423.275L14.975,92.54L437.242,92.54L437.242,158.166C437.242,162.303 440.59,165.656 444.727,165.656C448.863,165.656 452.212,162.303 452.212,158.166L452.212,30.926C452.212,14.419 438.785,0.992 422.282,0.992L29.93,0.992C13.427,0.992 0,14.419 0,30.926L0,423.275C0,439.778 13.427,453.204 29.93,453.204L165.658,453.204C169.794,453.204 173.147,449.856 173.147,445.719C173.147,441.583 169.794,438.234 165.658,438.234ZM14.975,30.926C14.975,22.676 21.684,15.967 29.93,15.967L422.282,15.967C430.528,15.967 437.238,22.676 437.238,30.926L437.238,77.566L14.975,77.566L14.975,30.926Z" style="fill:white;fill-rule:nonzero;"/>
    <path d="M497.464,401.801L442.945,401.801L482.337,362.409C487.616,357.13 487.616,348.541 482.337,343.263L452.212,313.138L452.212,204.919C452.212,200.782 448.863,197.43 444.727,197.43C440.59,197.43 437.242,200.782 437.242,204.919L437.242,298.163L423.799,284.72C418.52,279.449 409.931,279.446 404.653,284.724L365.261,324.116L365.261,269.598C365.261,262.132 359.187,256.058 351.725,256.058L268.937,256.058C261.471,256.058 255.397,262.132 255.397,269.598L255.397,343.656C255.397,343.707 255.405,343.754 255.405,343.804C255.405,343.855 255.397,343.902 255.397,343.953L255.397,438.23L212.574,438.23C208.441,438.23 205.089,441.583 205.089,445.719C205.089,449.852 208.441,453.204 212.574,453.204L255.397,453.204L255.397,454.698C255.397,469.688 259.139,483.528 269.564,494.749C279.198,505.111 292.812,511.29 306.964,511.645C307.409,511.653 307.853,511.661 308.298,511.661L423.105,511.661C423.156,511.661 423.202,511.653 423.253,511.653C423.304,511.653 423.351,511.661 423.401,511.661L497.46,511.661C504.926,511.661 511,505.587 511,498.125L511,415.337C511.004,407.875 504.93,401.801 497.464,401.801ZM270.375,271.032L350.29,271.032L350.29,336.171L270.375,336.171L270.375,271.032ZM270.375,351.442L337.935,351.442L278.005,411.376C275.767,412.943 273.674,414.694 271.709,416.577L270.375,416.577L270.375,351.442ZM335.51,496.69L308.298,496.69C287.385,496.69 270.375,479.676 270.375,458.764L270.375,454.702C270.375,433.789 287.385,416.775 308.298,416.775L335.51,416.775L335.51,496.69ZM313.865,401.801L311.311,399.243L357.37,353.185L405.982,401.801L313.865,401.801ZM415.62,496.69L350.485,496.69L350.485,416.775L415.62,416.775L415.62,496.69ZM368.169,342.385L414.228,296.327L470.735,352.834L424.676,398.892L368.169,342.385ZM496.029,496.69L430.895,496.69L430.895,416.775L496.029,416.775L496.029,496.69Z" style="fill:white;fill-rule:nonzero;"/>
    <path d="M278.824,456.733C278.824,469.52 289.229,479.93 302.017,479.93C314.808,479.93 325.214,469.52 325.214,456.733C325.214,443.941 314.808,433.536 302.017,433.536C289.229,433.536 278.824,443.941 278.824,456.733ZM310.243,456.733C310.243,461.267 306.551,464.955 302.017,464.955C297.483,464.955 293.798,461.267 293.798,456.733C293.798,452.199 297.483,448.511 302.017,448.511C306.551,448.511 310.243,452.199 310.243,456.733Z" style="fill:white;fill-rule:nonzero;"/>
</svg>
