<?xml version="1.0" encoding="UTF-8" standalone="no"?>
<!DOCTYPE svg PUBLIC "-//W3C//DTD SVG 1.1//EN" "http://www.w3.org/Graphics/SVG/1.1/DTD/svg11.dtd">
<svg width="100%" height="100%" viewBox="0 0 511 511" version="1.1" xmlns="http://www.w3.org/2000/svg" xmlns:xlink="http://www.w3.org/1999/xlink" xml:space="preserve" xmlns:serif="http://www.serif.com/" style="fill-rule:evenodd;clip-rule:evenodd;stroke-linejoin:round;stroke-miterlimit:1.41421;">
    <path d="M145.769,34.253C145.29,34.343 144.822,34.476 144.37,34.659C143.453,35.025 142.643,35.583 141.941,36.281C140.561,37.665 139.761,39.587 139.761,41.555C139.761,42.491 139.968,43.555 140.331,44.413C140.912,45.797 141.82,46.939 143.079,47.77C143.828,48.261 144.88,48.706 145.765,48.873C146.245,48.975 146.74,49.021 147.227,49.021C148.253,49.021 149.145,48.85 150.085,48.456C150.974,48.082 151.816,47.497 152.506,46.83C153.547,45.821 154.257,44.437 154.545,43.017C155.052,40.546 154.296,38.082 152.506,36.281C150.775,34.538 148.163,33.817 145.769,34.253Z" style="fill:white;fill-rule:nonzero;"/>
    <path d="M173.2,34.09C171.231,34.09 169.309,34.885 167.913,36.281C166.529,37.665 165.734,39.583 165.734,41.555C165.734,42.043 165.785,42.53 165.874,43.017C166.175,44.433 166.888,45.805 167.913,46.83C168.584,47.501 169.473,48.086 170.342,48.456C170.791,48.635 171.258,48.784 171.738,48.873C173.138,49.134 174.717,48.978 176.058,48.456C176.978,48.093 177.773,47.513 178.475,46.83C179.177,46.152 179.726,45.322 180.089,44.413C180.455,43.501 180.666,42.542 180.666,41.555C180.666,39.594 179.871,37.665 178.475,36.281C177.083,34.885 175.161,34.09 173.2,34.09Z" style="fill:white;fill-rule:nonzero;"/>
    <path d="M199.173,34.09C197.2,34.09 195.282,34.885 193.886,36.281C192.502,37.665 191.707,39.583 191.707,41.555C191.707,44.054 192.915,46.386 195.021,47.766C195.43,48.035 195.867,48.265 196.315,48.452C196.763,48.635 197.231,48.784 197.711,48.873C198.206,48.963 198.67,49.021 199.173,49.021C200.21,49.021 201.067,48.846 202.019,48.452C202.993,48.051 203.703,47.559 204.447,46.83C205.863,45.458 206.638,43.505 206.638,41.555C206.638,39.594 205.843,37.661 204.447,36.281C203.056,34.885 201.134,34.09 199.173,34.09Z" style="fill:white;fill-rule:nonzero;"/>
    <path d="M502.848,425.874L481.324,425.874L481.324,157.271C481.324,140.803 467.925,127.399 451.453,127.399L403.975,127.399L403.975,32.171C403.975,13.883 389.098,-0.998 370.81,-0.998L140.506,-0.998C122.218,-0.998 107.337,13.883 107.337,32.171L107.337,127.399L59.859,127.399C43.391,127.399 29.992,140.799 29.992,157.271L29.992,425.871L8.463,425.871C4.339,425.871 0.998,429.212 0.998,433.336L0.998,478.12C0.998,495.699 15.298,510.003 32.877,510.003L92.647,510.003C96.771,510.003 100.112,506.662 100.112,502.537C100.112,498.412 96.771,495.071 92.647,495.071L32.881,495.071C23.536,495.071 15.929,487.465 15.929,478.12L15.929,440.802L167.711,440.802L177.453,463.099C179.438,467.64 183.921,470.576 188.88,470.576L322.436,470.576C327.391,470.576 331.878,467.64 333.862,463.099L343.605,440.802L495.386,440.802L495.386,478.12C495.386,487.469 487.78,495.071 478.435,495.071L138.689,495.071C134.565,495.071 131.223,498.412 131.223,502.537C131.223,506.662 134.565,510.003 138.689,510.003L478.435,510.003C496.014,510.003 510.314,495.699 510.314,478.12L510.314,433.336C510.314,429.216 506.973,425.874 502.848,425.874ZM122.268,32.171C122.268,22.113 130.451,13.934 140.506,13.934L370.81,13.934C380.864,13.934 389.044,22.117 389.044,32.171L389.044,69.068L122.268,69.068L122.268,32.171ZM69.278,178.491L69.278,425.874L44.923,425.874L44.923,157.271C44.923,149.037 51.625,142.335 59.859,142.335L107.337,142.335L107.337,162.772L84.997,162.772C76.331,162.772 69.278,169.82 69.278,178.491ZM320.822,455.644L190.49,455.644L184.007,440.806L327.309,440.806L320.822,455.644ZM427.102,425.874L84.21,425.874L84.21,178.491C84.21,178.054 84.561,177.703 84.997,177.703L107.337,177.703L107.337,300.483C107.337,318.771 122.218,333.652 140.506,333.652L370.81,333.652C389.098,333.652 403.975,318.771 403.975,300.483L403.975,280.725C403.975,276.6 400.634,273.259 396.509,273.259C392.389,273.259 389.044,276.6 389.044,280.725L389.044,300.483C389.044,310.537 380.864,318.721 370.81,318.721L140.506,318.721C130.451,318.721 122.268,310.537 122.268,300.483L122.268,84.004L389.044,84.004L389.044,233.695C389.044,237.82 392.385,241.161 396.509,241.161C400.634,241.161 403.975,237.82 403.975,233.695L403.975,177.703L426.314,177.703C426.747,177.703 427.102,178.054 427.102,178.491L427.102,425.874ZM466.388,425.874L442.034,425.874L442.034,178.491C442.034,169.82 434.985,162.772 426.314,162.772L403.975,162.772L403.975,142.335L451.453,142.335C459.687,142.335 466.388,149.033 466.388,157.271L466.388,425.874Z" style="fill:white;fill-rule:nonzero;"/>
    <path d="M116.179,366.249L218.003,366.249C222.128,366.249 225.469,362.908 225.469,358.783C225.469,354.658 222.128,351.317 218.003,351.317L116.179,351.317C112.054,351.317 108.713,354.658 108.713,358.783C108.713,362.908 112.054,366.249 116.179,366.249Z" style="fill:white;fill-rule:nonzero;"/>
    <path d="M245.527,366.249L287.785,366.249C291.909,366.249 295.25,362.908 295.25,358.783C295.25,354.658 291.909,351.317 287.785,351.317L245.527,351.317C241.406,351.317 238.061,354.658 238.061,358.783C238.061,362.908 241.406,366.249 245.527,366.249Z" style="fill:white;fill-rule:nonzero;"/>
    <path d="M395.133,351.317L315.578,351.317C311.457,351.317 308.112,354.658 308.112,358.783C308.112,362.908 311.457,366.249 315.578,366.249L395.133,366.249C399.258,366.249 402.599,362.908 402.599,358.783C402.599,354.658 399.258,351.317 395.133,351.317Z" style="fill:white;fill-rule:nonzero;"/>
    <path d="M167.313,382.069L116.179,382.069C112.054,382.069 108.713,385.411 108.713,389.535C108.713,393.66 112.054,397.001 116.179,397.001L167.313,397.001C171.434,397.001 174.779,393.66 174.779,389.535C174.779,385.411 171.434,382.069 167.313,382.069Z" style="fill:white;fill-rule:nonzero;"/>
    <path d="M315.578,382.069L203.052,382.069C198.931,382.069 195.586,385.411 195.586,389.535C195.586,393.66 198.931,397.001 203.052,397.001L315.578,397.001C319.703,397.001 323.044,393.66 323.044,389.535C323.044,385.411 319.703,382.069 315.578,382.069Z" style="fill:white;fill-rule:nonzero;"/>
    <path d="M395.133,382.069L338.72,382.069C334.595,382.069 331.254,385.411 331.254,389.535C331.254,393.66 334.595,397.001 338.72,397.001L395.133,397.001C399.258,397.001 402.599,393.66 402.599,389.535C402.599,385.411 399.258,382.069 395.133,382.069Z" style="fill:white;fill-rule:nonzero;"/>
    <path d="M193.067,168.039C193.067,185.82 206.416,192.705 215.387,192.99C215.469,192.994 215.547,192.994 215.629,192.994C219.64,192.994 222.958,189.809 223.087,185.766C223.219,181.645 219.983,178.198 215.863,178.066C215.843,178.066 213.792,177.875 211.902,176.748C210.225,175.75 207.999,173.762 207.999,168.039L207.999,157.501C207.999,155.013 206.763,152.69 204.697,151.306L200.019,148.16L204.697,145.017C206.763,143.629 208.003,141.306 208.003,138.818L208.003,128.28C208.003,124.702 209.317,121.22 212.549,119.388C213.757,118.705 215.04,118.386 216.362,118.253C220.155,117.871 223.091,114.787 223.091,110.978L223.091,110.624C223.091,106.596 219.828,103.329 215.796,103.329L215.387,103.329C206.416,103.618 193.071,110.499 193.071,128.28L193.071,134.838L185.945,139.629C182.459,141.969 180.693,146.218 181.656,150.483C182.245,153.095 183.921,155.337 186.147,156.83L193.071,161.481L193.071,168.039L193.067,168.039Z" style="fill:white;fill-rule:nonzero;"/>
    <path d="M294.95,118.253C296.272,118.386 297.558,118.705 298.767,119.388C301.995,121.22 303.313,124.702 303.313,128.28L303.313,138.818C303.313,141.306 304.549,143.629 306.615,145.017L311.297,148.16L306.615,151.306C304.553,152.69 303.313,155.013 303.313,157.501L303.313,168.039C303.313,173.762 301.087,175.75 299.414,176.748C297.523,177.875 295.469,178.066 295.449,178.066C291.328,178.198 288.093,181.645 288.225,185.766C288.358,189.809 291.671,192.994 295.683,192.994C295.765,192.994 295.847,192.994 295.929,192.99C304.9,192.705 318.245,185.82 318.245,168.039L318.245,161.481L325.168,156.83C327.395,155.333 329.071,153.095 329.66,150.483C330.623,146.214 328.857,141.965 325.371,139.625L318.245,134.838L318.245,128.277C318.245,110.495 304.9,103.614 295.925,103.329L295.516,103.329C291.488,103.329 288.221,106.596 288.221,110.624L288.221,110.978C288.221,114.787 291.161,117.871 294.95,118.253Z" style="fill:white;fill-rule:nonzero;"/>
    <path d="M168.171,206.655L147.227,206.655C143.103,206.655 139.758,209.996 139.758,214.12C139.758,218.245 143.103,221.586 147.227,221.586L168.171,221.586C172.295,221.586 175.637,218.245 175.637,214.12C175.637,209.996 172.295,206.655 168.171,206.655Z" style="fill:white;fill-rule:nonzero;"/>
    <path d="M364.088,206.655L199.75,206.655C195.629,206.655 192.284,209.996 192.284,214.12C192.284,218.245 195.629,221.586 199.75,221.586L364.088,221.586C368.209,221.586 371.554,218.245 371.554,214.12C371.554,209.996 368.209,206.655 364.088,206.655Z" style="fill:white;fill-rule:nonzero;"/>
    <path d="M168.171,240.849L147.227,240.849C143.103,240.849 139.758,244.191 139.758,248.315C139.758,252.44 143.103,255.781 147.227,255.781L168.171,255.781C172.295,255.781 175.637,252.44 175.637,248.315C175.637,244.191 172.295,240.849 168.171,240.849Z" style="fill:white;fill-rule:nonzero;"/>
    <path d="M364.088,240.849L199.75,240.849C195.629,240.849 192.284,244.191 192.284,248.315C192.284,252.44 195.629,255.781 199.75,255.781L364.088,255.781C368.209,255.781 371.554,252.44 371.554,248.315C371.554,244.191 368.209,240.849 364.088,240.849Z" style="fill:white;fill-rule:nonzero;"/>
    <path d="M168.171,275.04L147.227,275.04C143.103,275.04 139.758,278.385 139.758,282.51C139.758,286.631 143.103,289.976 147.227,289.976L168.171,289.976C172.295,289.976 175.637,286.631 175.637,282.51C175.637,278.385 172.295,275.04 168.171,275.04Z" style="fill:white;fill-rule:nonzero;"/>
    <path d="M364.088,275.04L199.75,275.04C195.629,275.04 192.284,278.385 192.284,282.51C192.284,286.631 195.629,289.976 199.75,289.976L364.088,289.976C368.209,289.976 371.554,286.631 371.554,282.51C371.554,278.385 368.209,275.04 364.088,275.04Z" style="fill:white;fill-rule:nonzero;"/>
    <path d="M222.787,166.538C223.368,167.922 224.272,169.068 225.531,169.894C226.284,170.386 227.336,170.834 228.221,170.998C228.697,171.099 229.196,171.146 229.683,171.146C230.709,171.146 231.601,170.974 232.541,170.581C233.43,170.206 234.272,169.625 234.962,168.955C236.003,167.945 236.713,166.561 237.001,165.146C237.508,162.67 236.751,160.206 234.962,158.405C233.231,156.666 230.619,155.941 228.225,156.378C227.746,156.468 227.278,156.6 226.826,156.783C225.909,157.15 225.098,157.707 224.397,158.405C223.013,159.789 222.217,161.711 222.217,163.68C222.217,164.616 222.424,165.68 222.787,166.538Z" style="fill:white;fill-rule:nonzero;"/>
    <path d="M250.369,168.959C251.04,169.629 251.929,170.214 252.798,170.581C253.247,170.76 253.714,170.908 254.194,170.998C255.594,171.263 257.173,171.107 258.514,170.581C259.434,170.218 260.229,169.641 260.931,168.959C261.633,168.28 262.182,167.446 262.545,166.538C262.911,165.625 263.122,164.666 263.122,163.68C263.122,161.719 262.326,159.789 260.931,158.405C259.539,157.013 257.617,156.214 255.656,156.214C253.687,156.214 251.765,157.013 250.369,158.405C248.985,159.789 248.19,161.711 248.19,163.68C248.19,164.171 248.241,164.655 248.33,165.146C248.631,166.561 249.344,167.93 250.369,168.959Z" style="fill:white;fill-rule:nonzero;"/>
    <path d="M277.477,169.894C277.886,170.163 278.323,170.39 278.771,170.581C279.219,170.76 279.687,170.908 280.167,170.998C280.662,171.091 281.126,171.146 281.629,171.146C282.666,171.146 283.523,170.97 284.475,170.581C285.449,170.179 286.159,169.684 286.903,168.955C288.319,167.583 289.094,165.629 289.094,163.68C289.094,161.719 288.299,159.789 286.903,158.405C285.512,157.009 283.59,156.214 281.629,156.214C279.656,156.214 277.738,157.009 276.342,158.405C274.958,159.789 274.163,161.707 274.163,163.68C274.163,166.183 275.371,168.51 277.477,169.894Z" style="fill:white;fill-rule:nonzero;"/>
</svg>
