<svg height="512pt" viewBox="0 0 512.001 512" width="512pt" xmlns="http://www.w3.org/2000/svg"><path d="m244.078125 197.203125c-44.03125 0-79.855469 35.820313-79.855469 79.851563s35.824219 79.851562 79.855469 79.851562 79.851563-35.820312 79.851563-79.851562-35.820313-79.851563-79.851563-79.851563zm0 144.71875c-35.769531 0-64.867187-29.101563-64.867187-64.867187 0-35.765626 29.097656-64.867188 64.867187-64.867188 35.765625 0 64.867187 29.101562 64.867187 64.867188 0 35.765624-29.101562 64.867187-64.867187 64.867187zm0 0"/><path d="m55.261719 28.761719c-12.125 0-21.988281 9.863281-21.988281 21.988281s9.863281 21.992188 21.988281 21.992188 21.992187-9.867188 21.992187-21.992188c0-12.121094-9.867187-21.988281-21.992187-21.988281zm0 28.992187c-3.859375 0-7.003907-3.140625-7.003907-7 0-3.863281 3.144532-7.003906 7.003907-7.003906 3.863281 0 7.003906 3.140625 7.003906 7.003906 0 3.859375-3.140625 7-7.003906 7zm0 0"/><path d="m111.25 28.761719c-12.125 0-21.992188 9.863281-21.992188 21.988281s9.867188 21.992188 21.992188 21.992188 21.988281-9.867188 21.988281-21.992188c0-12.121094-9.863281-21.988281-21.988281-21.988281zm0 28.992187c-3.863281 0-7.003906-3.140625-7.003906-7 0-3.863281 3.140625-7.003906 7.003906-7.003906 3.859375 0 7.003906 3.140625 7.003906 7.003906 0 3.859375-3.144531 7-7.003906 7zm0 0"/><path d="m167.234375 28.761719c-12.125 0-21.988281 9.863281-21.988281 21.988281s9.863281 21.992188 21.988281 21.992188 21.992187-9.867188 21.992187-21.992188c0-12.121094-9.867187-21.988281-21.992187-21.988281zm0 28.992187c-3.859375 0-7.003906-3.140625-7.003906-7 0-3.863281 3.144531-7.003906 7.003906-7.003906 3.863281 0 7.003906 3.140625 7.003906 7.003906 0 3.859375-3.140625 7-7.003906 7zm0 0"/><path d="m111.25 155.492188c-4.140625 0-7.496094 3.355468-7.496094 7.496093v33.066407c0 4.136718 3.355469 7.492187 7.496094 7.492187 4.136719 0 7.492188-3.355469 7.492188-7.492187v-33.066407c0-4.140625-3.355469-7.496093-7.492188-7.496093zm0 0"/><path d="m479.019531 0h-446.039062c-18.183594 0-32.980469 14.796875-32.980469 32.980469v362.566406c0 15.910156 11.328125 29.226563 26.34375 32.308594 2.144531.4375 4.363281.667969 6.636719.667969h145.804687v26.875h-22.625c-15.09375 0-27.371094 12.277343-27.371094 27.371093v16.1875c0 6.886719 5.601563 12.488281 12.488282 12.488281h228.875c6.886718 0 12.488281-5.601562 12.488281-12.488281v-16.1875c0-15.09375-12.277344-27.371093-27.367187-27.371093h-22.625v-26.875h46.050781l15.136719 12.699218c6.570312 5.511719 14.699218 8.457032 23.175781 8.457032 1.070312 0 2.144531-.046876 3.222656-.140626 9.621094-.84375 18.339844-5.382812 24.546875-12.785156 2.125-2.53125 3.859375-5.300781 5.199219-8.230468h28.472656c2.273437 0 4.492187-.230469 6.636719-.667969 15.015625-3.082031 26.34375-16.398438 26.34375-32.308594v-35.917969l.566406-326.652344c0-18.183593-14.796875-32.976562-32.980469-32.976562zm-123.746093 470.386719c6.828124 0 12.382812 5.554687 12.382812 12.382812v13.691407h-223.878906v-13.691407c0-6.828125 5.554687-12.382812 12.382812-12.382812zm-161.5-14.988281v-26.871094h123.886718v26.871094zm-160.792969-41.859376c-9.921875 0-17.996094-8.070312-17.996094-17.992187v-28.425781h157.214844c19.722656 15.773437 44.714843 25.222656 71.878906 25.222656 24.441406 0 47.429687-7.746094 66.355469-21.082031l50.398437 42.277343zm400.320312 13.582032c-3.636719 4.335937-8.742187 6.996094-14.375 7.488281-5.632812.496094-11.125-1.234375-15.460937-4.871094l-81.152344-68.070312c10.386719-9.585938 19.042969-21.082031 25.371094-34l83 69.621093c4.335937 3.636719 6.992187 8.742188 7.488281 14.375.492187 5.636719-1.238281 11.125-4.871094 15.457032zm63.144531-31.574219c0 9.921875-8.070312 17.992187-17.996093 17.992187h-25.214844c0-1.054687-.039063-2.117187-.132813-3.179687-.84375-9.625-5.386718-18.34375-12.785156-24.550781l-22.277344-18.683594h78.40625zm0-43.410156h-96.269531l-46.558593-39.050781c1.441406-4.382813 2.632812-8.886719 3.550781-13.503907.804687-4.0625-1.835938-8.003906-5.894531-8.808593-4.058594-.792969-8.003907 1.835937-8.808594 5.894531-9.265625 46.753906-50.640625 80.6875-98.386719 80.6875-55.304687 0-100.300781-44.996094-100.300781-100.300781 0-55.304688 44.996094-100.300782 100.300781-100.300782 23.003906 0 44.640625 7.574219 62.570313 21.902344 17.40625 13.914062 29.832031 33.4375 34.984374 54.976562.960938 4.023438 5.007813 6.511719 9.03125 5.546876 4.023438-.960938 6.507813-5.003907 5.542969-9.03125-1.382812-5.78125-3.238281-11.429688-5.5-16.90625h75.976563c8.539062 0 15.488281-6.949219 15.488281-15.488282v-76.46875c0-8.539062-6.949219-15.488281-15.488281-15.488281h-222.90625c-4.140625 0-7.496094 3.355469-7.496094 7.496094 0 4.136719 3.355469 7.492187 7.496094 7.492187h222.90625c.273437 0 .5.222656.5.5v76.46875c0 .277344-.226563.5-.5.5h-83.476563c-7.082031-11.910156-16.28125-22.574218-27.203125-31.304687-20.320312-16.238281-45.863281-25.183594-71.925781-25.183594-42.105469 0-79.007813 22.695313-99.128906 56.488281h-59.082031c-.273438 0-.5-.222656-.5-.5v-76.46875c0-.273437.222656-.5.5-.5h71.367187c4.140625 0 7.496094-3.355468 7.496094-7.492187 0-4.140625-3.355469-7.496094-7.496094-7.496094h-71.367187c-8.539063 0-15.484376 6.949219-15.484376 15.488281v76.46875c0 8.539063 6.945313 15.488282 15.484376 15.488282h51.582031c-5.574219 13.515624-8.660157 28.308593-8.660157 43.8125 0 28.652343 10.511719 54.894531 27.875 75.082031h-141.679687v-250.207031h481.460937zm0-265.195313h-480.90625v-53.964844c0-9.917968 8.070313-17.988281 17.992188-17.988281h444.917969c9.925781 0 17.996093 8.070313 17.996093 17.992188zm0 0"/><path d="m229.957031 278.972656 16.472657-21.074218c2.550781-3.261719 1.972656-7.972657-1.289063-10.519532s-7.96875-1.96875-10.519531 1.289063l-16.472656 21.074219c-2.546876 3.261718-1.96875 7.972656 1.289062 10.519531 1.371094 1.070312 2.996094 1.589843 4.609375 1.589843 2.230469 0 4.433594-.988281 5.910156-2.878906zm0 0"/><path d="m278.371094 243.492188c-3.265625-2.546876-7.972656-1.96875-10.519532 1.289062l-43.238281 55.320312c-2.550781 3.257813-1.972656 7.96875 1.289063 10.519532 1.371094 1.070312 2.996094 1.589844 4.609375 1.589844 2.226562 0 4.429687-.988282 5.90625-2.878907l43.238281-55.320312c2.550781-3.261719 1.972656-7.96875-1.285156-10.519531zm0 0"/></svg>